<?xml version="1.0" encoding="iso-8859-1"?>
<!-- Generator: Adobe Illustrator 19.0.0, SVG Export Plug-In . SVG Version: 6.00 Build 0)  -->
<svg version="1.1" id="Layer_1" xmlns="http://www.w3.org/2000/svg" xmlns:xlink="http://www.w3.org/1999/xlink" x="0px" y="0px"
	 viewBox="0 0 512 512" style="enable-background:new 0 0 512 512;" xml:space="preserve">
<circle style="fill:#EFC84A;" cx="256" cy="256" r="256"/>
<path style="opacity:0.1;enable-background:new    ;" d="M512,256c0-10.048-0.64-19.947-1.771-29.696L400.8,116.875l-0.053,0.053
	c-1.173-1.12-2.72-1.813-4.427-1.813H157.547c-25.333,0-47.413,19.52-48.213,44.853c-0.427,14.24,5.653,27.093,15.36,35.84
	l13.92,13.92H115.68c-3.52,0-6.347,2.827-6.347,6.293c0,1.28,0.48,2.347,1.067,3.36h-0.107l0.373,0.373
	c0.373,0.48,0.8,0.907,1.28,1.28l7.467,7.413c2.027,5.493,3.467,10.933,4.32,16.373c0,0.16,0,0.267,0.053,0.373
	c0.48,3.147,0.747,6.293,0.8,9.493c0.053,0.853,0.053,1.76,0,2.613c-0.16,10.773-2.72,21.547-7.733,32.32h-1.173
	c-3.52,0-6.347,2.827-6.347,6.347c0,1.867,0.853,3.467,2.08,4.64l14.88,14.933c-9.92,8.107-16.533,20-16.96,33.653
	c-0.427,14.187,5.653,26.987,15.36,35.787l126.864,126.907C253.04,511.915,254.512,512,256,512C397.387,512,512,397.387,512,256z"/>
<path style="fill:#E56353;" d="M155.627,195.045c-19.664,0-35.44-16.955-33.483-37.008c1.707-17.477,17.419-30.283,34.981-30.283
	h239.221c3.493,0,6.32-2.832,6.32-6.32l0,0c0-3.493-2.832-6.32-6.32-6.32H157.563c-25.349,0-47.451,19.531-48.208,44.869
	c-0.784,26.213,20.229,47.712,46.267,47.712h240.72c3.493,0,6.32-2.832,6.32-6.32v-0.005c0-3.493-2.832-6.32-6.32-6.32H155.627
	V195.045z"/>
<path style="fill:#EBF0F3;" d="M122.144,158.037c-1.957,20.053,13.819,37.008,33.483,37.008h239.52
	c-10.437-22.432-10.437-44.864,0-67.291H157.125C139.563,127.755,123.851,140.56,122.144,158.037z"/>
<g>
	<path style="fill:#E1E6E9;" d="M142.8,143.104h246.901c0.224-0.891,0.517-1.776,0.779-2.667H142.8L142.8,143.104L142.8,143.104z"/>
	<path style="fill:#E1E6E9;" d="M142.8,152.917h245.019c0.107-0.891,0.331-1.776,0.464-2.667H142.8V152.917z"/>
	<path style="fill:#E1E6E9;" d="M142.8,162.736h244.592c-0.016-0.891-0.016-1.776,0-2.667H142.8V162.736z"/>
	<path style="fill:#E1E6E9;" d="M142.8,172.555h245.483c-0.139-0.891-0.363-1.776-0.464-2.667H142.8V172.555z"/>
	<path style="fill:#E1E6E9;" d="M142.8,182.363h247.68c-0.256-0.891-0.549-1.776-0.779-2.667H142.8V182.363z"/>
</g>
<path style="fill:#27A2DB;" d="M356.373,289.643c19.664,0,35.44-16.955,33.483-37.008c-1.707-17.477-17.419-30.283-34.981-30.283
	H115.653c-3.493,0-6.32-2.832-6.32-6.32l0,0c0-3.493,2.832-6.32,6.32-6.32h238.784c25.349,0,47.451,19.531,48.208,44.869
	c0.784,26.213-20.229,47.712-46.267,47.712H115.653c-3.493,0-6.32-2.832-6.32-6.32v-0.005c0-3.493,2.832-6.32,6.32-6.32h240.72
	V289.643z"/>
<path style="fill:#EBF0F3;" d="M389.856,252.635c1.957,20.053-13.819,37.008-33.483,37.008h-239.52
	c10.437-22.432,10.437-44.859,0-67.291h238.021C372.437,222.352,388.149,235.157,389.856,252.635z"/>
<g>
	<path style="fill:#E1E6E9;" d="M369.2,237.701H122.299c-0.224-0.891-0.517-1.776-0.773-2.667h247.68v2.667H369.2z"/>
	<path style="fill:#E1E6E9;" d="M369.2,247.515H124.181c-0.107-0.891-0.331-1.776-0.464-2.667H369.2V247.515z"/>
	<path style="fill:#E1E6E9;" d="M369.2,257.333H124.608c0.016-0.891,0.016-1.776,0-2.667H369.2V257.333z"/>
	<path style="fill:#E1E6E9;" d="M369.2,267.147H123.717c0.139-0.891,0.363-1.776,0.464-2.667H369.2L369.2,267.147L369.2,267.147z"/>
	<path style="fill:#E1E6E9;" d="M369.2,276.96H121.52c0.256-0.891,0.549-1.776,0.773-2.667h246.901v2.667H369.2z"/>
</g>
<path style="fill:#44C4A1;" d="M155.627,384.24c-19.664,0-35.44-16.955-33.483-37.008c1.707-17.477,17.419-30.283,34.981-30.283
	h239.221c3.493,0,6.32-2.832,6.32-6.32l0,0c0-3.493-2.832-6.32-6.32-6.32H157.563c-25.349,0-47.451,19.531-48.208,44.869
	c-0.784,26.213,20.229,47.712,46.267,47.712h240.72c3.493,0,6.32-2.832,6.32-6.32v-0.011c0-3.493-2.832-6.32-6.32-6.32
	L155.627,384.24L155.627,384.24z"/>
<path style="fill:#EBF0F3;" d="M122.144,347.232c-1.957,20.053,13.819,37.008,33.483,37.008h239.52
	c-10.437-22.432-10.437-44.864,0-67.291H157.125C139.563,316.949,123.851,329.755,122.144,347.232z"/>
<g>
	<path style="fill:#E1E6E9;" d="M142.8,332.299h246.901c0.224-0.891,0.517-1.776,0.779-2.667H142.8L142.8,332.299L142.8,332.299z"/>
	<path style="fill:#E1E6E9;" d="M142.8,342.112h245.019c0.107-0.891,0.331-1.776,0.464-2.667H142.8V342.112z"/>
	<path style="fill:#E1E6E9;" d="M142.8,351.931h244.592c-0.016-0.891-0.016-1.776,0-2.667H142.8V351.931z"/>
	<path style="fill:#E1E6E9;" d="M142.8,361.744h245.483c-0.139-0.891-0.363-1.776-0.464-2.667H142.8V361.744z"/>
	<path style="fill:#E1E6E9;" d="M142.8,371.557h247.68c-0.256-0.891-0.549-1.776-0.779-2.667H142.8V371.557z"/>
</g>
<g>
</g>
<g>
</g>
<g>
</g>
<g>
</g>
<g>
</g>
<g>
</g>
<g>
</g>
<g>
</g>
<g>
</g>
<g>
</g>
<g>
</g>
<g>
</g>
<g>
</g>
<g>
</g>
<g>
</g>
</svg>
