<?xml version="1.0" encoding="iso-8859-1"?>
<!-- Generator: Adobe Illustrator 19.0.0, SVG Export Plug-In . SVG Version: 6.00 Build 0)  -->
<svg version="1.1" id="Layer_1" xmlns="http://www.w3.org/2000/svg" xmlns:xlink="http://www.w3.org/1999/xlink" x="0px" y="0px"
	 viewBox="0 0 512 512" style="enable-background:new 0 0 512 512;" xml:space="preserve">
<circle style="fill:#F4E3C3;" cx="256" cy="256" r="256"/>
<path style="fill:#FED8B2;" d="M507.961,301.528L400.305,193.872l-61.561,100.164L200.242,155.534l-31.354,75.659L123.04,294.21
	l206.924,206.922C421.136,473.662,490.872,396.736,507.961,301.528z"/>
<path style="fill:#C1321F;" d="M268.043,409.762c0,0,154.265-88.216,154.265-161.968c0-42.596-34.533-77.128-77.133-77.128
	s-77.133,34.532-77.133,77.128L256,284.444l28.444,56.889L256,369.778L268.043,409.762z"/>
<path style="fill:#F1543F;" d="M240.614,360.014c0,0-163.361-64.634-172.856-141.96c-5.191-42.279,24.876-80.762,67.158-85.952
	c42.282-5.191,80.767,24.874,85.957,67.153l-34.313,52.764l28.232-3.467l26.61,54.05L240.614,360.014z"/>
<g>
</g>
<g>
</g>
<g>
</g>
<g>
</g>
<g>
</g>
<g>
</g>
<g>
</g>
<g>
</g>
<g>
</g>
<g>
</g>
<g>
</g>
<g>
</g>
<g>
</g>
<g>
</g>
<g>
</g>
</svg>
