<?xml version="1.0" encoding="iso-8859-1"?>
<!-- Generator: Adobe Illustrator 19.0.0, SVG Export Plug-In . SVG Version: 6.00 Build 0)  -->
<svg version="1.1" id="Layer_1" xmlns="http://www.w3.org/2000/svg" xmlns:xlink="http://www.w3.org/1999/xlink" x="0px" y="0px"
	 viewBox="0 0 512 512" style="enable-background:new 0 0 512 512;" xml:space="preserve">
<circle style="fill:#273B7A;" cx="256" cy="256" r="256"/>
<path style="fill:#121149;" d="M280.35,510.84c105.322-9.94,192.059-83.68,221.167-182.165l-81.561-81.561l-3.065,8.894
	l-66.644-66.644l-9.197,96.523l19.351,19.351L94.539,325.029L280.35,510.84z"/>
<path style="fill:#71E2EF;" d="M369.778,350.815c35.347,0,64-28.653,64-64s-28.653-64-64-64c-0.398,0-0.791,0.022-1.188,0.029
	c-5.07-28.194-29.71-49.592-59.364-49.592c-3.646,0-7.211,0.341-10.68,0.962c-13.226-30.001-43.208-50.955-78.102-50.955
	c-47.128,0-85.333,38.205-85.333,85.333c0,0.476,0.028,0.945,0.036,1.419c-32.475,6.575-56.925,35.276-56.925,69.692
	c0,39.274,31.837,71.111,71.111,71.111H369.778z"/>
<path style="fill:#38C6D9;" d="M369.778,222.815c-0.398,0-0.791,0.022-1.188,0.029c-5.07-28.194-29.71-49.592-59.364-49.592
	c-3.646,0-7.211,0.341-10.68,0.962c-10.137-22.993-30.124-40.66-54.613-47.664v224.265h125.845c35.347,0,64-28.653,64-64
	S405.125,222.815,369.778,222.815z"/>
<g>
</g>
<g>
</g>
<g>
</g>
<g>
</g>
<g>
</g>
<g>
</g>
<g>
</g>
<g>
</g>
<g>
</g>
<g>
</g>
<g>
</g>
<g>
</g>
<g>
</g>
<g>
</g>
<g>
</g>
</svg>
