<?xml version="1.0" encoding="iso-8859-1"?>
<!-- Generator: Adobe Illustrator 19.0.0, SVG Export Plug-In . SVG Version: 6.00 Build 0)  -->
<svg version="1.1" id="Layer_1" xmlns="http://www.w3.org/2000/svg" xmlns:xlink="http://www.w3.org/1999/xlink" x="0px" y="0px"
	 viewBox="0 0 512 512" style="enable-background:new 0 0 512 512;" xml:space="preserve">
<path style="fill:#F6E27D;" d="M502.489,104.1l-13.762,10.094l-23.273,17.067L269.762,274.767
	c-4.096,3.004-8.929,4.506-13.762,4.506c-4.833,0-9.667-1.503-13.762-4.506L46.545,131.261l-23.273-17.067L9.511,104.1
	C3.435,99.646,0.02,92.646,0,85.394v341.273c0,12.853,10.42,23.273,23.273,23.273H256h232.727c12.853,0,23.273-10.42,23.273-23.273
	V85.394C511.98,92.646,508.565,99.646,502.489,104.1z"/>
<path style="fill:#F2D23D;" d="M511.893,83.192c-0.022-0.231-0.054-0.462-0.082-0.694c-0.057-0.465-0.127-0.926-0.211-1.382
	c-0.053-0.284-0.105-0.568-0.169-0.85c-0.09-0.4-0.195-0.794-0.304-1.185c-0.082-0.293-0.157-0.591-0.251-0.884
	c-0.011-0.033-0.019-0.07-0.029-0.102c-0.15-0.461-0.326-0.906-0.503-1.351c-0.141-0.355-0.292-0.7-0.45-1.046
	c-0.188-0.414-0.379-0.825-0.591-1.227c-0.127-0.242-0.268-0.476-0.405-0.715c-0.216-0.372-0.434-0.743-0.672-1.103
	c-0.143-0.219-0.289-0.433-0.438-0.649c-0.265-0.379-0.545-0.748-0.83-1.109c-0.138-0.175-0.273-0.354-0.417-0.524
	c-0.388-0.461-0.794-0.909-1.218-1.339c-0.056-0.057-0.105-0.118-0.164-0.175c-0.481-0.479-0.988-0.934-1.51-1.372
	c-0.166-0.14-0.341-0.268-0.512-0.402c-0.36-0.285-0.728-0.563-1.106-0.827c-0.225-0.158-0.453-0.307-0.683-0.458
	c-0.346-0.223-0.698-0.434-1.057-0.639c-0.247-0.143-0.492-0.289-0.746-0.42c-0.399-0.211-0.808-0.402-1.221-0.59
	c-0.214-0.098-0.42-0.205-0.639-0.295c-0.597-0.25-1.209-0.472-1.832-0.672c-0.259-0.084-0.526-0.15-0.79-0.225
	c-0.416-0.118-0.833-0.228-1.257-0.324c-0.275-0.061-0.549-0.115-0.827-0.166c-0.456-0.085-0.915-0.154-1.379-0.209
	c-0.24-0.031-0.481-0.067-0.725-0.088c-0.704-0.065-1.421-0.107-2.147-0.107H256H23.273c-0.726,0-1.443,0.042-2.152,0.109
	c-0.244,0.022-0.483,0.057-0.725,0.088c-0.464,0.056-0.923,0.124-1.379,0.209c-0.278,0.051-0.552,0.106-0.827,0.166
	c-0.424,0.096-0.841,0.206-1.257,0.324c-0.264,0.074-0.531,0.141-0.79,0.225c-0.622,0.2-1.235,0.42-1.832,0.672
	c-0.219,0.092-0.425,0.199-0.639,0.295c-0.413,0.188-0.822,0.379-1.221,0.59c-0.253,0.132-0.498,0.278-0.745,0.42
	c-0.358,0.205-0.711,0.417-1.057,0.639c-0.23,0.15-0.459,0.299-0.683,0.458c-0.379,0.264-0.746,0.543-1.106,0.827
	c-0.171,0.133-0.346,0.262-0.512,0.402c-0.521,0.438-1.027,0.892-1.51,1.372c-0.057,0.057-0.107,0.118-0.163,0.175
	c-0.424,0.43-0.83,0.878-1.218,1.339c-0.144,0.171-0.279,0.349-0.417,0.524c-0.287,0.36-0.565,0.731-0.83,1.109
	c-0.15,0.216-0.295,0.43-0.438,0.649c-0.236,0.36-0.455,0.729-0.67,1.102c-0.137,0.239-0.278,0.473-0.405,0.715
	c-0.213,0.402-0.403,0.813-0.591,1.227c-0.158,0.346-0.309,0.69-0.45,1.046c-0.177,0.445-0.354,0.891-0.503,1.351
	c-0.011,0.033-0.019,0.07-0.028,0.102c-0.095,0.293-0.169,0.591-0.251,0.884c-0.109,0.391-0.216,0.785-0.304,1.185
	c-0.064,0.282-0.116,0.566-0.169,0.85c-0.084,0.456-0.154,0.917-0.211,1.382c-0.028,0.231-0.061,0.462-0.082,0.694
	C0.043,83.898,0,84.61,0,85.333v0.061c0.02,7.252,3.435,14.252,9.511,18.707l13.762,10.094l23.273,17.067l195.693,143.506
	c4.096,3.004,8.929,4.506,13.762,4.506c4.833,0,9.666-1.503,13.762-4.506l195.693-143.506l23.273-17.067l13.762-10.094
	c6.076-4.454,9.491-11.455,9.511-18.707v-0.061C512,84.61,511.957,83.898,511.893,83.192z"/>
<path style="fill:#F5DC60;" d="M9.511,104.1l13.762,10.094l23.273,17.067l195.693,143.506c4.096,3.004,8.929,4.506,13.762,4.506
	v170.667H23.273C10.42,449.939,0,439.519,0,426.667V85.394C0.02,92.646,3.435,99.646,9.511,104.1z"/>
<path style="fill:#EEBF00;" d="M9.511,104.1l13.762,10.094l23.273,17.067l195.693,143.506c4.096,3.004,8.929,4.506,13.762,4.506
	V62.061H23.273c-0.726,0-1.443,0.042-2.152,0.109c-0.244,0.022-0.484,0.057-0.725,0.088c-0.464,0.056-0.923,0.124-1.379,0.209
	c-0.278,0.051-0.552,0.106-0.827,0.166c-0.424,0.096-0.841,0.206-1.257,0.324c-0.264,0.074-0.531,0.141-0.79,0.225
	c-0.622,0.2-1.235,0.42-1.832,0.672c-0.219,0.092-0.425,0.199-0.639,0.295c-0.413,0.188-0.822,0.379-1.221,0.59
	c-0.253,0.132-0.498,0.278-0.746,0.42c-0.358,0.205-0.711,0.416-1.057,0.639c-0.23,0.15-0.459,0.299-0.683,0.458
	c-0.379,0.264-0.746,0.543-1.106,0.827c-0.171,0.133-0.346,0.262-0.512,0.402c-0.521,0.438-1.027,0.892-1.51,1.372
	c-0.057,0.057-0.107,0.118-0.164,0.175c-0.424,0.43-0.83,0.878-1.218,1.339c-0.144,0.171-0.279,0.349-0.417,0.524
	c-0.287,0.36-0.565,0.731-0.83,1.109c-0.15,0.216-0.295,0.43-0.438,0.649c-0.233,0.36-0.451,0.729-0.667,1.102
	c-0.137,0.239-0.278,0.473-0.405,0.715c-0.213,0.402-0.403,0.813-0.591,1.227c-0.158,0.346-0.309,0.69-0.45,1.046
	c-0.177,0.445-0.354,0.891-0.503,1.351c-0.011,0.033-0.019,0.07-0.028,0.102c-0.096,0.293-0.169,0.591-0.251,0.884
	c-0.109,0.391-0.216,0.785-0.304,1.185c-0.064,0.282-0.116,0.566-0.169,0.85c-0.084,0.456-0.154,0.917-0.211,1.382
	c-0.028,0.231-0.061,0.462-0.082,0.694C0.043,83.898,0,84.61,0,85.333v0.061C0.02,92.646,3.435,99.646,9.511,104.1z"/>
<g>
</g>
<g>
</g>
<g>
</g>
<g>
</g>
<g>
</g>
<g>
</g>
<g>
</g>
<g>
</g>
<g>
</g>
<g>
</g>
<g>
</g>
<g>
</g>
<g>
</g>
<g>
</g>
<g>
</g>
</svg>
