<?xml version="1.0" encoding="iso-8859-1"?>
<!-- Generator: Adobe Illustrator 19.0.0, SVG Export Plug-In . SVG Version: 6.00 Build 0)  -->
<svg version="1.1" id="Layer_1" xmlns="http://www.w3.org/2000/svg" xmlns:xlink="http://www.w3.org/1999/xlink" x="0px" y="0px"
	 viewBox="0 0 512 512" style="enable-background:new 0 0 512 512;" xml:space="preserve">
<circle style="fill:#FEE187;" cx="256" cy="256" r="256"/>
<path style="fill:#FFC61B;" d="M284.5,510.412C412.469,496.235,512,387.749,512,256c0-10.568-0.653-20.98-1.898-31.211
	L385.91,100.597l-28.2,6.904L256.217,312.449L256,306.567l-123.639,15.767l88.55,88.55l-27.548,23.252L284.5,510.412z M256,371.238
	v10.031l-34.473,29.096L256,371.238z"/>
<rect x="142.222" y="113.778" style="fill:#FFFFFF;" width="227.556" height="199.111"/>
<rect x="256.293" y="113.778" style="fill:#D3D3D3;" width="113.49" height="199.111"/>
<path style="fill:#6B4200;" d="M137.309,120.689h237.382c7.284,0,13.188-5.904,13.188-13.188l0,0
	c0-7.284-5.904-13.188-13.188-13.188H137.309c-7.284,0-13.188,5.904-13.188,13.188l0,0
	C124.121,114.785,130.026,120.689,137.309,120.689z"/>
<path style="fill:#8E5400;" d="M319.593,419.962l-54.112-54.112v-47.79c0-5.236-4.246-9.481-9.481-9.481
	c-5.236,0-9.481,4.246-9.481,9.481v47.79l-54.112,54.113c-3.703,3.701-3.703,9.706,0,13.407c3.7,3.703,9.707,3.703,13.407,0
	l40.705-40.703v39.171c0,5.236,4.246,9.481,9.481,9.481c5.236,0,9.481-4.246,9.481-9.481v-39.171l40.703,40.703
	c1.85,1.851,4.277,2.777,6.704,2.777s4.853-0.926,6.704-2.777C323.296,429.668,323.296,423.665,319.593,419.962z"/>
<g>
	<path style="fill:#6B4200;" d="M319.593,419.962l-54.112-54.112v-47.79c0-5.139-4.093-9.314-9.194-9.468v132.711
		c5.101-0.153,9.194-4.329,9.194-9.468v-39.171l40.703,40.703c1.85,1.851,4.277,2.777,6.704,2.777s4.853-0.926,6.704-2.777
		C323.296,429.668,323.296,423.665,319.593,419.962z"/>
	<path style="fill:#6B4200;" d="M137.309,323.303h237.382c7.284,0,13.188-5.904,13.188-13.188l0,0
		c0-7.284-5.904-13.188-13.188-13.188H137.309c-7.284,0-13.188,5.904-13.188,13.188l0,0
		C124.121,317.399,130.026,323.303,137.309,323.303z"/>
</g>
<g>
	<path style="fill:#4F2F00;" d="M374.691,94.313H256.288v26.376h118.403c7.284,0,13.188-5.904,13.188-13.188
		C387.879,100.218,381.974,94.313,374.691,94.313z"/>
	<path style="fill:#4F2F00;" d="M374.691,296.927H256.288v26.376h118.403c7.284,0,13.188-5.904,13.188-13.188l0,0
		C387.879,302.832,381.974,296.927,374.691,296.927z"/>
</g>
<g>
	<path style="fill:#263A7A;" d="M341.333,167.65H170.667c-1.427,0-2.586-1.158-2.586-2.586s1.158-2.586,2.586-2.586h170.667
		c1.427,0,2.586,1.158,2.586,2.586S342.761,167.65,341.333,167.65z"/>
	<path style="fill:#263A7A;" d="M341.333,196.094H170.667c-1.427,0-2.586-1.158-2.586-2.586s1.158-2.586,2.586-2.586h170.667
		c1.427,0,2.586,1.158,2.586,2.586S342.761,196.094,341.333,196.094z"/>
	<path style="fill:#263A7A;" d="M341.333,224.539H170.667c-1.427,0-2.586-1.158-2.586-2.586s1.158-2.586,2.586-2.586h170.667
		c1.427,0,2.586,1.158,2.586,2.586S342.761,224.539,341.333,224.539z"/>
	<path style="fill:#263A7A;" d="M341.333,252.983H170.667c-1.427,0-2.586-1.158-2.586-2.586s1.158-2.586,2.586-2.586h170.667
		c1.427,0,2.586,1.158,2.586,2.586S342.761,252.983,341.333,252.983z"/>
</g>
<g>
</g>
<g>
</g>
<g>
</g>
<g>
</g>
<g>
</g>
<g>
</g>
<g>
</g>
<g>
</g>
<g>
</g>
<g>
</g>
<g>
</g>
<g>
</g>
<g>
</g>
<g>
</g>
<g>
</g>
</svg>
