<?xml version="1.0" encoding="iso-8859-1"?>
<!-- Generator: Adobe Illustrator 19.0.0, SVG Export Plug-In . SVG Version: 6.00 Build 0)  -->
<svg version="1.1" id="Layer_1" xmlns="http://www.w3.org/2000/svg" xmlns:xlink="http://www.w3.org/1999/xlink" x="0px" y="0px"
	 viewBox="0 0 512 512" style="enable-background:new 0 0 512 512;" xml:space="preserve">
<circle style="fill:#273B7A;" cx="256" cy="256" r="256"/>
<g>
	<polygon style="fill:#121149;" points="141.36,190.919 171.818,221.377 170.38,175.12 	"/>
	<path style="fill:#121149;" d="M267.766,511.721c128.814-5.829,232.815-106.846,243.341-234.382L365.158,131.387l-13.11,16.932
		l-50.605-50.436l-16.136,136.282l16.274,16.274L163.771,407.724L267.766,511.721z"/>
</g>
<path style="fill:#D35933;" d="M297.153,156.898h-82.306c-2.857,0-5.172-2.315-5.172-5.172v-50.952c0-2.857,2.315-5.172,5.172-5.172
	h82.306c2.857,0,5.172,2.315,5.172,5.172v50.952C302.325,154.583,300.01,156.898,297.153,156.898z M220.019,146.554h71.963v-40.608
	h-71.963L220.019,146.554L220.019,146.554z"/>
<path style="fill:#B54324;" d="M297.153,95.603H256v10.343h35.981v40.608H256v10.343h41.153c2.857,0,5.172-2.315,5.172-5.172
	v-50.952C302.325,97.918,300.01,95.603,297.153,95.603z"/>
<path style="fill:#D35933;" d="M182.844,417.259h146.31c13.171,0,23.847-10.676,23.847-23.849V158.584H158.998v234.827
	C158.998,406.581,169.674,417.259,182.844,417.259z"/>
<path style="fill:#B54324;" d="M256,158.584v258.674h73.154c13.171,0,23.847-10.676,23.847-23.847V158.584H256z"/>
<path style="fill:#FFA488;" d="M370.64,190.919H141.36v-46.568c0-9.997,8.104-18.101,18.101-18.101h193.077
	c9.997,0,18.101,8.104,18.101,18.101V190.919z"/>
<path style="fill:#FF7F4F;" d="M370.64,144.351c0-9.997-8.104-18.101-18.101-18.101H256v64.669h114.64V144.351z"/>
<path style="fill:#FFA488;" d="M223.666,417.259h-32.334V237.475c0-7.854,6.368-14.222,14.222-14.222h3.889
	c7.854,0,14.222,6.368,14.222,14.222V417.259z"/>
<path style="fill:#FF7F4F;" d="M320.669,417.259h-32.334V237.475c0-7.854,6.368-14.222,14.222-14.222h3.889
	c7.854,0,14.222,6.368,14.222,14.222V417.259z"/>
<path style="fill:#FFA488;" d="M272.167,417.259h-32.334V237.475c0-7.854,6.368-14.222,14.222-14.222h3.889
	c7.854,0,14.222,6.368,14.222,14.222V417.259z"/>
<path style="fill:#FF7F4F;" d="M272.167,237.475c0-7.854-6.368-14.222-14.222-14.222H256v194.005h16.167V237.475z"/>
<g>
</g>
<g>
</g>
<g>
</g>
<g>
</g>
<g>
</g>
<g>
</g>
<g>
</g>
<g>
</g>
<g>
</g>
<g>
</g>
<g>
</g>
<g>
</g>
<g>
</g>
<g>
</g>
<g>
</g>
</svg>
