<?xml version="1.0" encoding="UTF-8" standalone="no"?>
<svg
   aria-label="GitHub"
   role="img"
   viewBox="0 0 512 512"
   version="1.1"
   id="svg6"
   sodipodi:docname="github.svg"
   inkscape:version="1.1.1 (3bf5ae0d25, 2021-09-20)"
   xmlns:inkscape="http://www.inkscape.org/namespaces/inkscape"
   xmlns:sodipodi="http://sodipodi.sourceforge.net/DTD/sodipodi-0.dtd"
   xmlns="http://www.w3.org/2000/svg"
   xmlns:svg="http://www.w3.org/2000/svg">
  <defs
     id="defs10" />
  <sodipodi:namedview
     id="namedview8"
     pagecolor="#ffffff"
     bordercolor="#666666"
     borderopacity="1.0"
     inkscape:pageshadow="2"
     inkscape:pageopacity="0.0"
     inkscape:pagecheckerboard="0"
     showgrid="false"
     inkscape:zoom="1.2304687"
     inkscape:cx="-34.133333"
     inkscape:cy="199.11111"
     inkscape:window-width="1920"
     inkscape:window-height="985"
     inkscape:window-x="0"
     inkscape:window-y="30"
     inkscape:window-maximized="1"
     inkscape:current-layer="svg6" />
  <rect
     width="512"
     height="512"
     rx="15.000001%"
     fill="#1b1817"
     id="rect2"
     x="0"
     y="0" />
  <path
     fill="#fff"
     d="M335 499c14 0 12 17 12 17H165s-2-17 12-17c13 0 16-6 16-12l-1-50c-71 16-86-28-86-28-12-30-28-37-28-37-24-16 1-16 1-16 26 2 40 26 40 26 22 39 59 28 74 22 2-17 9-28 16-35-57-6-116-28-116-126 0-28 10-51 26-69-3-6-11-32 3-67 0 0 21-7 70 26 42-12 86-12 128 0 49-33 70-26 70-26 14 35 6 61 3 67 16 18 26 41 26 69 0 98-60 120-117 126 10 8 18 24 18 48l-1 70c0 6 3 12 16 12z"
     id="path4" />
  <path
     id="path985"
     style="fill:#a0a0a0;stroke:none;stroke-width:0.812698"
     d="M 0 0 L 0 50.923828 L 0 101.84766 L 0 276.80859 L 0 410.15234 L 0 451.76953 L 0 461.07617 L 0 512 L 0.0078125 512 L 0.0078125 513.59375 L 82.347656 513.59375 L 164.68945 513.59375 L 164.68945 511.59375 L 164.97852 511.59375 L 164.98047 509.35938 C 164.98433 506.52064 167.50879 502.35161 170.34961 500.49023 C 171.63131 499.65042 175.04206 498.812 178.5332 498.47852 C 185.57947 497.80547 189.19736 495.97446 191.22266 492.06055 C 192.56989 489.45704 192.64001 487.30616 192.13672 463.64453 C 191.83724 449.56453 191.522 437.95921 191.4375 437.85547 C 191.35304 437.75172 188.01705 438.28385 184.02344 439.03711 C 172.93299 441.12894 151.21766 440.89004 142.62891 438.58203 C 132.55897 435.87599 123.4891 431.02319 116.91992 424.82617 C 110.67821 418.93805 108.56423 415.75014 103.61328 404.75781 C 97.046119 390.17713 88.801595 379.65276 78.765625 373.04102 C 64.790238 363.834 63.581051 357.29575 75.597656 355.91406 C 85.883452 354.73137 100.33212 360.86754 110.05664 370.54883 C 113.22215 373.70025 118.2976 380.01434 121.33594 384.57812 C 130.91382 398.96481 141.26177 406.37374 155.24805 408.86133 C 163.23089 410.28115 170.2302 409.88617 180.2832 407.44727 C 190.9404 404.8618 192.44703 404.0376 193.04492 400.46289 C 194.64431 390.90037 198.66394 381.23251 203.98828 374.14648 C 207.74207 369.15066 207.63747 369.0067 199.62695 368.17578 C 184.10326 366.56553 162.08643 360.24937 149.04492 353.66602 C 120.25855 339.13471 102.47135 314.27149 95.955078 279.45508 C 89.984102 247.55223 92.029975 220.66647 102.0957 198.75586 C 105.04525 192.33542 114.11799 178.16754 116.87305 175.67969 C 118.50451 174.20647 118.50671 174.14762 117.00781 169.79102 C 114.52206 162.56606 113.5092 153.07712 114.0332 141.89453 C 114.55099 130.84439 115.78525 124.08491 119.20703 113.55273 C 121.75404 105.71306 121.99722 105.57122 131.55273 106.31445 C 146.12728 107.44806 169.48498 117.20903 188.58984 130.15039 C 192.10394 132.53078 192.30315 132.56768 195.85938 131.49609 C 211.04818 126.91925 234.77696 123.93555 256 123.93555 C 276.93096 123.93555 292.55124 125.76632 312.63672 130.57227 L 320.10352 132.35938 L 324.41992 129.50195 C 343.87806 116.62014 366.08071 107.43188 380.44727 106.31445 C 390.00278 105.57122 390.24596 105.71306 392.79297 113.55273 C 396.21475 124.08491 397.44901 130.84439 397.9668 141.89453 C 398.4908 153.07712 397.47794 162.56606 394.99219 169.79102 C 393.49329 174.14762 393.49549 174.20647 395.12695 175.67969 C 397.88201 178.16754 406.95475 192.33542 409.9043 198.75586 C 417.16176 214.55353 419.81622 229.47643 419.07422 250.31055 C 417.74748 287.56325 408.58864 313.56288 389.79102 333.44336 C 373.09089 351.10552 348.27089 362.59624 316.54688 367.35156 C 311.63006 368.08857 306.75823 368.85698 305.7207 369.06055 L 303.83398 369.43164 L 306.12695 372.05078 C 312.66391 379.51715 316.96951 389.23166 319.09375 401.30469 C 320.24076 407.82371 320.34298 413.96894 319.88867 449.01562 C 319.40334 486.45527 319.46641 489.43904 320.80078 492.06055 C 322.73353 495.85767 326.49059 497.85322 332.60156 498.32617 C 335.39269 498.54218 338.68947 499.10244 339.92773 499.57227 C 343.12831 500.78663 346.12558 504.68463 346.7207 508.40625 L 347.23047 511.59375 L 347.39453 511.59375 L 347.39453 513.99805 L 430.69727 513.99805 L 513.99805 513.99805 L 513.99805 512 L 514 512 L 514 256 L 514 0 L 512 0 L 481.25586 0 L 463.04688 0 L 447.82812 0 L 414.09375 0 L 272.86719 0 L 97.90625 0 L 48.953125 0 L 0 0 z " />
</svg>
