<?xml version="1.0" encoding="iso-8859-1"?>
<!-- Generator: Adobe Illustrator 19.0.0, SVG Export Plug-In . SVG Version: 6.00 Build 0)  -->
<svg version="1.1" id="Layer_1" xmlns="http://www.w3.org/2000/svg" xmlns:xlink="http://www.w3.org/1999/xlink" x="0px" y="0px"
	 viewBox="0 0 512 512" style="enable-background:new 0 0 512 512;" xml:space="preserve">
<circle style="fill:#273B7A;" cx="256" cy="256" r="256"/>
<g>
	<path style="fill:#121149;" d="M467.925,399.644c25.714-37.864,41.541-82.978,43.787-131.641L381.131,137.423l-38.145,27.381
		l-77.769-77.769l-17.613,92.289L467.925,399.644z"/>
	<path style="fill:#121149;" d="M204.193,187.127l-17.063,17.067L428.287,445.35c5.953-5.418,11.647-11.114,17.065-17.065
		L204.193,187.127z"/>
	<path style="fill:#121149;" d="M266.743,511.759c49.13-2.029,94.687-17.891,132.87-43.813L179.872,248.206l-93.965,15.92
		l79.3,80.943l-31.716,33.439L266.743,511.759z"/>
</g>
<path style="fill:#FFC61B;" d="M256.002,182.734c-6.665,0-12.067-5.403-12.067-12.067V94.815c0-6.665,5.403-12.067,12.067-12.067
	c6.665,0,12.067,5.403,12.067,12.067v75.852C268.069,177.331,262.666,182.734,256.002,182.734z"/>
<path style="fill:#EAA22F;" d="M256,82.747L256,82.747l-0.002,99.987l0,0c6.665,0,12.067-5.403,12.067-12.067V94.815
	C268.067,88.15,262.666,82.747,256,82.747z"/>
<path style="fill:#FFC61B;" d="M256.002,429.253c-6.665,0-12.067-5.403-12.067-12.067v-75.852c0-6.665,5.403-12.067,12.067-12.067
	c6.665,0,12.067,5.403,12.067,12.067v75.852C268.069,423.85,262.666,429.253,256.002,429.253z"/>
<g>
	<path style="fill:#EAA22F;" d="M256,329.266L256,329.266l-0.002,99.987l0,0c6.665,0,12.067-5.403,12.067-12.067v-75.852
		C268.067,334.669,262.666,329.266,256,329.266z"/>
	<path style="fill:#EAA22F;" d="M417.187,268.067h-75.852c-6.665,0-12.067-5.403-12.067-12.067c0-6.665,5.403-12.067,12.067-12.067
		h75.852c6.665,0,12.067,5.403,12.067,12.067C429.254,262.665,423.852,268.067,417.187,268.067z"/>
</g>
<path style="fill:#FFC61B;" d="M170.667,268.067H94.815c-6.665,0-12.067-5.403-12.067-12.067c0-6.665,5.403-12.067,12.067-12.067
	h75.852c6.665,0,12.067,5.403,12.067,12.067C182.734,262.665,177.333,268.067,170.667,268.067z"/>
<path style="fill:#EAA22F;" d="M316.338,207.727c-3.089,0-6.177-1.179-8.533-3.536c-4.711-4.711-4.711-12.352,0.002-17.065
	l53.636-53.634c4.711-4.71,12.354-4.708,17.065,0.002c4.711,4.711,4.711,12.352-0.002,17.065l-53.636,53.634
	C322.515,206.548,319.426,207.727,316.338,207.727z"/>
<path style="fill:#FFC61B;" d="M142.024,382.042c-3.089,0-6.177-1.179-8.533-3.536c-4.711-4.711-4.711-12.352,0.002-17.065
	l53.636-53.634c4.713-4.71,12.355-4.708,17.065,0.002c4.711,4.711,4.711,12.352-0.002,17.065l-53.636,53.634
	C148.201,380.864,145.111,382.042,142.024,382.042z"/>
<path style="fill:#EAA22F;" d="M369.976,382.042c-3.087,0-6.177-1.179-8.532-3.534l-53.636-53.634
	c-4.713-4.713-4.713-12.354-0.002-17.065c4.713-4.713,12.355-4.711,17.065-0.002l53.636,53.634
	c4.713,4.713,4.713,12.353,0.002,17.065C376.153,380.864,373.064,382.042,369.976,382.042z"/>
<path style="fill:#FFC61B;" d="M195.662,207.727c-3.088,0-6.177-1.179-8.532-3.534l-53.638-53.634
	c-4.713-4.713-4.713-12.354-0.002-17.065c4.713-4.713,12.355-4.711,17.065-0.002l53.636,53.634
	c4.713,4.713,4.713,12.354,0.002,17.065C201.838,206.548,198.749,207.727,195.662,207.727z"/>
<g>
</g>
<g>
</g>
<g>
</g>
<g>
</g>
<g>
</g>
<g>
</g>
<g>
</g>
<g>
</g>
<g>
</g>
<g>
</g>
<g>
</g>
<g>
</g>
<g>
</g>
<g>
</g>
<g>
</g>
</svg>
