<?xml version="1.0" encoding="iso-8859-1"?>
<!-- Generator: Adobe Illustrator 19.0.0, SVG Export Plug-In . SVG Version: 6.00 Build 0)  -->
<svg version="1.1" id="Layer_1" xmlns="http://www.w3.org/2000/svg" xmlns:xlink="http://www.w3.org/1999/xlink" x="0px" y="0px"
	 viewBox="0 0 512 512" style="enable-background:new 0 0 512 512;" xml:space="preserve">
<circle style="fill:#FF7F4F;" cx="256" cy="256" r="256"/>
<path style="fill:#DD4E22;" d="M511.326,274.542L368.59,131.805h-63.171l-153.428,144.02l-20.687,43.494l12.56,56.846
	l134.823,134.823C403.346,500.038,502.363,399.758,511.326,274.542z"/>
<path style="fill:#FFFFFF;" d="M122.397,324.251c-0.002,18.801,7.154,37.598,21.468,51.914c28.625,28.624,75.198,28.624,103.824,0
	l139.278-139.278c3.515-3.515,3.515-9.218-0.002-12.733c-3.515-3.515-9.216-3.515-12.733,0.002L234.956,363.434
	c-21.602,21.602-56.754,21.602-78.358-0.002c-21.602-21.602-21.602-56.751,0-78.358l140.533-140.531
	c7.844-7.844,18.272-12.164,29.363-12.164c11.092,0,21.521,4.318,29.362,12.162c7.844,7.844,12.164,18.272,12.164,29.363
	c0,11.092-4.32,21.52-12.162,29.362L234.563,324.56c-10.778,10.778-28.317,10.778-39.093,0c-10.778-10.776-10.776-28.317,0-39.091
	l105.196-105.198c3.515-3.515,3.515-9.218-0.002-12.733c-3.515-3.515-9.216-3.515-12.733,0.002L182.736,272.736
	c-17.801,17.801-17.796,46.763,0.002,64.56c17.799,17.799,46.759,17.799,64.56,0L368.592,216
	c11.243-11.243,17.437-26.195,17.437-42.096c0-15.903-6.192-30.853-17.437-42.096c-11.243-11.243-26.193-17.437-42.096-17.437
	c-15.903,0-30.853,6.192-42.096,17.437L143.867,272.339C129.555,286.649,122.399,305.452,122.397,324.251z"/>
<g>
	<path style="fill:#E2E2E2;" d="M374.232,224.154L234.956,363.432c-21.601,21.599-56.746,21.602-78.348,0.007l-12.734,12.734
		c28.625,28.615,75.193,28.613,103.815-0.009l139.278-139.278c3.515-3.515,3.515-9.218-0.002-12.733
		C383.45,220.636,377.749,220.636,374.232,224.154z"/>
	<path style="fill:#E2E2E2;" d="M368.021,173.901c0,11.092-4.318,21.52-12.162,29.362L234.565,324.556
		c-10.776,10.776-28.307,10.778-39.084,0.009l-12.734,12.734c17.799,17.791,46.754,17.789,64.552-0.009l121.294-121.296
		c11.243-11.243,17.437-26.195,17.437-42.096c0-11.161-3.062-21.845-8.768-31.117l-13.257,13.257
		C366.632,161.549,368.021,167.619,368.021,173.901z"/>
</g>
<g>
</g>
<g>
</g>
<g>
</g>
<g>
</g>
<g>
</g>
<g>
</g>
<g>
</g>
<g>
</g>
<g>
</g>
<g>
</g>
<g>
</g>
<g>
</g>
<g>
</g>
<g>
</g>
<g>
</g>
</svg>
