<?xml version="1.0" encoding="iso-8859-1"?>
<!-- Generator: Adobe Illustrator 19.0.0, SVG Export Plug-In . SVG Version: 6.00 Build 0)  -->
<svg version="1.1" id="Layer_1" xmlns="http://www.w3.org/2000/svg" xmlns:xlink="http://www.w3.org/1999/xlink" x="0px" y="0px"
	 viewBox="0 0 512.002 512.002" style="enable-background:new 0 0 512.002 512.002;" xml:space="preserve">
<circle style="fill:#FF6262;" cx="256.001" cy="256" r="256"/>
<path style="fill:#940030;" d="M510.582,283.026L341.334,113.778L90.134,361.582l149.909,149.909
	c5.28,0.324,10.597,0.51,15.958,0.51C388.257,512,497.079,411.705,510.582,283.026z"/>
<path style="fill:#474747;" d="M404.831,369.778H107.169c-12.06,0-21.837-9.776-21.837-21.837V220.946
	c0-12.06,9.776-21.837,21.837-21.837h297.662c12.06,0,21.837,9.776,21.837,21.837v126.995
	C426.668,360.001,416.891,369.778,404.831,369.778z"/>
<path style="fill:#282828;" d="M404.831,199.111h-148.83v170.667h148.83c12.06,0,21.837-9.776,21.837-21.837V220.946
	C426.668,208.887,416.891,199.111,404.831,199.111z"/>
<path style="fill:#9B9B9B;" d="M160.898,312.889h190.204c10.314,0,18.675-8.361,18.675-18.675v-95.103H142.221v95.103
	C142.223,304.528,150.584,312.889,160.898,312.889z"/>
<path style="fill:#777777;" d="M256.001,199.111v113.778h95.101c10.314,0,18.675-8.361,18.675-18.675v-95.103H256.001z"/>
<circle style="fill:#E03A00;" cx="392.189" cy="342.195" r="6.896"/>
<circle style="fill:#18A000;" cx="362.883" cy="342.195" r="6.896"/>
<rect x="170.668" y="113.778" style="fill:#FFFFFF;" width="170.667" height="85.333"/>
<rect x="256.001" y="113.778" style="fill:#E2E2E2;" width="85.333" height="85.333"/>
<g>
</g>
<g>
</g>
<g>
</g>
<g>
</g>
<g>
</g>
<g>
</g>
<g>
</g>
<g>
</g>
<g>
</g>
<g>
</g>
<g>
</g>
<g>
</g>
<g>
</g>
<g>
</g>
<g>
</g>
</svg>
