<?xml version="1.0" encoding="iso-8859-1"?>
<!-- Generator: Adobe Illustrator 19.0.0, SVG Export Plug-In . SVG Version: 6.00 Build 0)  -->
<svg version="1.1" id="Layer_1" xmlns="http://www.w3.org/2000/svg" xmlns:xlink="http://www.w3.org/1999/xlink" x="0px" y="0px"
	 viewBox="0 0 512 512" style="enable-background:new 0 0 512 512;" xml:space="preserve">
<circle style="fill:#FFD15D;" cx="256" cy="256" r="256"/>
<path style="fill:#F9B54C;" d="M511.96,259.196L395.43,142.667L218.074,287.246l-99.781,87.478l137.269,137.269
	c0.147,0,0.291,0.005,0.438,0.005C396.316,512,510.245,399.107,511.96,259.196z"/>
<path style="fill:#FC6F58;" d="M383.928,378.613H128.072c-7.894,0-14.295-6.399-14.295-14.295V193.796
	c0-7.894,6.399-14.295,14.295-14.295h255.855c7.894,0,14.295,6.399,14.295,14.295v170.522
	C398.222,372.214,391.823,378.613,383.928,378.613z"/>
<path style="fill:#F1543F;" d="M383.928,179.502H254.564v199.111h129.364c7.894,0,14.295-6.399,14.295-14.295V193.796
	C398.222,185.901,391.823,179.502,383.928,179.502z"/>
<path style="fill:#324A5E;" d="M383.928,335.946H128.072c-7.894,0-14.295-6.399-14.295-14.295V151.13
	c0-7.894,6.399-14.295,14.295-14.295h255.855c7.894,0,14.295,6.399,14.295,14.295v170.522
	C398.222,329.547,391.823,335.946,383.928,335.946z"/>
<path style="fill:#2B3B4E;" d="M383.928,136.835H254.564v199.111h129.364c7.894,0,14.295-6.399,14.295-14.295V151.13
	C398.222,143.234,391.823,136.835,383.928,136.835z"/>
<circle style="fill:#E6F3FF;" cx="256" cy="236.382" r="50.855"/>
<path style="fill:#CFDBE6;" d="M205.172,235.313c-0.007,0.359-0.028,0.717-0.028,1.077c0,28.086,22.769,50.855,50.855,50.855
	s50.855-22.769,50.855-50.855c0-0.36-0.019-0.719-0.028-1.077H205.172z"/>
<path style="fill:#FC6F58;" d="M243.1,210.26l38.948,22.487c2.805,1.619,2.805,5.668,0,7.287L243.1,262.52
	c-2.805,1.619-6.311-0.405-6.311-3.644v-44.973C236.789,210.665,240.295,208.641,243.1,210.26z"/>
<path style="fill:#F1543F;" d="M236.789,235.313v23.564c0,3.239,3.506,5.263,6.311,3.644l38.948-22.487
	c1.762-1.017,2.413-2.991,1.962-4.722H236.789z"/>
<rect x="137.051" y="321.715" style="fill:#FFC61B;" width="10.343" height="28.444"/>
<g>
</g>
<g>
</g>
<g>
</g>
<g>
</g>
<g>
</g>
<g>
</g>
<g>
</g>
<g>
</g>
<g>
</g>
<g>
</g>
<g>
</g>
<g>
</g>
<g>
</g>
<g>
</g>
<g>
</g>
</svg>
