<?xml version="1.0" encoding="UTF-8" standalone="no"?>
<svg
   width="32px"
   height="32px"
   viewBox="0 0 32 32"
   version="1.1"
   id="svg16"
   sodipodi:docname="cpp.svg"
   inkscape:version="1.1.1 (3bf5ae0d25, 2021-09-20)"
   xmlns:inkscape="http://www.inkscape.org/namespaces/inkscape"
   xmlns:sodipodi="http://sodipodi.sourceforge.net/DTD/sodipodi-0.dtd"
   xmlns="http://www.w3.org/2000/svg"
   xmlns:svg="http://www.w3.org/2000/svg">
  <defs
     id="defs20" />
  <sodipodi:namedview
     id="namedview18"
     pagecolor="#ffffff"
     bordercolor="#666666"
     borderopacity="1.0"
     inkscape:pageshadow="2"
     inkscape:pageopacity="0.0"
     inkscape:pagecheckerboard="0"
     showgrid="false"
     inkscape:zoom="19.6875"
     inkscape:cx="15.974603"
     inkscape:cy="16"
     inkscape:window-width="1920"
     inkscape:window-height="979"
     inkscape:window-x="0"
     inkscape:window-y="36"
     inkscape:window-maximized="1"
     inkscape:current-layer="svg16" />
  <title
     id="title2">file_type_cpp3</title>
  <path
     d="M 30.224632,9.4588385 A 2.6093759,2.7420451 0 0 0 29.877006,8.0298046 2.6793384,2.8155646 0 0 0 28.853807,7.0200612 Q 23.175926,3.7254716 17.492581,0.43432824 a 2.8881321,3.0349741 0 0 0 -3.020404,0.0275698 C 12.965802,1.3567674 5.4262677,5.7059012 3.1787281,7.0166149 A 2.50006,2.627171 0 0 0 1.8024379,9.4576898 V 22.713014 a 2.6235871,2.7569788 0 0 0 0.3279484,1.401465 2.6607546,2.7960359 0 0 0 1.0428759,1.033867 c 2.2475396,1.310713 9.7881658,5.659846 11.2945428,6.554716 a 2.8881321,3.0349741 0 0 0 3.020404,0.02987 q 5.673508,-3.298036 11.353575,-6.585733 A 2.6716863,2.8075234 0 0 0 29.885752,24.113332 2.6235871,2.7569788 0 0 0 30.2137,22.711867 V 9.4588385"
     style="fill:#659ad2;stroke-width:1.1206"
     id="path4" />
  <path
     d="m 29.731616,24.322401 a 2.3240609,2.4422236 0 0 0 0.160695,-0.209072 2.6235871,2.7569788 0 0 0 0.327948,-1.401464 V 9.4588385 A 2.6093759,2.7420451 0 0 0 29.872634,8.0298046 C 29.83328,7.9620287 29.775347,7.9091868 29.730523,7.846006 l -13.716989,8.238772 z"
     style="fill:#00599c;stroke-width:1.1206"
     id="path6" />
  <path
     d="M 29.731616,24.322401 16.013534,16.084778 2.2954538,24.322401 a 2.6618478,2.7971846 0 0 0 0.8843673,0.827093 c 2.2475398,1.310713 9.7881669,5.659848 11.2945429,6.554717 a 2.8881321,3.0349741 0 0 0 3.020405,0.02987 q 5.673507,-3.298035 11.353573,-6.585732 a 2.656382,2.791441 0 0 0 0.883274,-0.825945 z"
     style="fill:#004482;stroke-width:1.1206"
     id="path8" />
  <path
     d="m 19.948917,18.405235 a 4.5049179,4.7339622 0 1 1 -0.0295,-4.694905 L 23.87119,11.328989 A 9.0830775,9.54489 0 0 0 6.9403048,16.084778 8.9814132,9.4380572 0 0 0 8.1427823,20.814146 9.0940094,9.5563775 0 0 0 23.89633,20.794616 l -3.947404,-2.389381"
     style="fill:#ffffff;stroke-width:1.1206"
     id="path10" />
  <polygon
     points="22.225,17.381 23.15,17.381 23.15,16.461 24.076,16.461 24.076,15.538 23.15,15.538 23.15,14.617 22.225,14.617 22.225,15.538 21.299,15.538 21.299,16.461 22.225,16.461 "
     style="fill:#ffffff"
     id="polygon12"
     transform="matrix(1.0931613,0,0,1.1487412,-1.477046,-2.2950807)" />
  <polygon
     points="25.697,17.381 26.623,17.381 26.623,16.461 27.549,16.461 27.549,15.538 26.623,15.538 26.623,14.617 25.697,14.617 25.697,15.538 24.771,15.538 24.771,16.461 25.697,16.461 "
     style="fill:#ffffff"
     id="polygon14"
     transform="matrix(1.0931613,0,0,1.1487412,-1.477046,-2.2950807)" />
</svg>
