<?xml version="1.0" encoding="UTF-8" standalone="no"?>
<!-- Generator: Adobe Illustrator 19.0.0, SVG Export Plug-In . SVG Version: 6.00 Build 0)  -->

<svg
   version="1.1"
   id="Layer_1"
   x="0px"
   y="0px"
   viewBox="0 0 512.032 300.00001"
   xml:space="preserve"
   sodipodi:docname="designpatterns.svg"
   inkscape:version="1.1.1 (3bf5ae0d25, 2021-09-20)"
   width="512.03198"
   height="300"
   xmlns:inkscape="http://www.inkscape.org/namespaces/inkscape"
   xmlns:sodipodi="http://sodipodi.sourceforge.net/DTD/sodipodi-0.dtd"
   xmlns="http://www.w3.org/2000/svg"
   xmlns:svg="http://www.w3.org/2000/svg"><defs
   id="defs65" /><sodipodi:namedview
   id="namedview63"
   pagecolor="#ffffff"
   bordercolor="#666666"
   borderopacity="1.0"
   inkscape:pageshadow="2"
   inkscape:pageopacity="0.0"
   inkscape:pagecheckerboard="0"
   showgrid="false"
   inkscape:zoom="1.2303919"
   inkscape:cx="146.29485"
   inkscape:cy="255.20324"
   inkscape:window-width="1920"
   inkscape:window-height="985"
   inkscape:window-x="0"
   inkscape:window-y="30"
   inkscape:window-maximized="1"
   inkscape:current-layer="Layer_1" />
<rect
   style="fill:#ffffff;stroke-width:0.342525"
   id="rect904"
   width="514.39142"
   height="299.40579"
   x="-1.1696911"
   y="-0.81073296" /><rect
   x="256.79184"
   y="90.394066"
   style="fill:#ff6600"
   width="191.34399"
   height="16.384001"
   id="rect2" />
<rect
   x="384.47186"
   y="50.234058"
   width="127.552"
   height="16.384001"
   id="rect4" />
<rect
   x="256.79184"
   y="10.074056"
   style="fill:#ff6600"
   width="63.776001"
   height="16.384001"
   id="rect6" />
<rect
   x="384.47186"
   y="10.074056"
   width="63.776001"
   height="16.384001"
   id="rect8" />
<rect
   x="193.11186"
   y="130.55405"
   style="fill:#ff6600"
   width="63.776001"
   height="16.384001"
   id="rect10" />
<rect
   x="320.63187"
   y="130.55405"
   width="127.552"
   height="16.384001"
   id="rect12" />
<rect
   x="410.34384"
   y="210.87405"
   width="63.776001"
   height="16.384001"
   id="rect14" />
<rect
   x="282.79184"
   y="210.87405"
   style="fill:#ff6600"
   width="63.776001"
   height="16.384001"
   id="rect16" />
<rect
   x="218.99986"
   y="170.71405"
   width="63.776001"
   height="16.384001"
   id="rect18" />
<rect
   x="346.56784"
   y="170.71405"
   style="fill:#ff6600"
   width="63.776001"
   height="16.384001"
   id="rect20" />
<rect
   x="282.79184"
   y="251.03406"
   width="127.552"
   height="16.384001"
   id="rect22" />
<circle
   cx="109.12787"
   cy="105.61005"
   r="53.84"
   id="circle24" />
<path
   d="m 106.58386,284.60206 -52.015995,-112.784 c 0,0 -54.57600043,0.72 -54.57600043,50.928 0,50.208 0,61.84 0,61.84 0,0 106.95999543,0.016 106.59199543,0.016 z"
   id="path26" />
<path
   d="m 111.67186,284.60206 52.016,-112.768 c 0,0 54.576,0.72 54.576,50.928 0,50.208 0,61.84 0,61.84 0,0 -106.96,0 -106.592,0 z"
   id="path28" />
<polygon
   style="fill:#22acdd"
   points="71.664,280.496 109.136,363.44 146.608,280.496 109.136,280.496 "
   id="polygon30"
   transform="translate(-0.00813543,-108.67794)" />
<g
   id="g32">
</g>
<g
   id="g34">
</g>
<g
   id="g36">
</g>
<g
   id="g38">
</g>
<g
   id="g40">
</g>
<g
   id="g42">
</g>
<g
   id="g44">
</g>
<g
   id="g46">
</g>
<g
   id="g48">
</g>
<g
   id="g50">
</g>
<g
   id="g52">
</g>
<g
   id="g54">
</g>
<g
   id="g56">
</g>
<g
   id="g58">
</g>
<g
   id="g60">
</g>
</svg>
