<?xml version="1.0" encoding="UTF-8" standalone="no"?>
<!-- Svg Vector Icons : http://www.onlinewebfonts.com/icon -->

<svg
   version="1.1"
   x="0px"
   y="0px"
   viewBox="0 0 1000 1000"
   enable-background="new 0 0 1000 1000"
   xml:space="preserve"
   id="svg16"
   sodipodi:docname="jdbc.svg"
   inkscape:version="1.1.1 (3bf5ae0d25, 2021-09-20)"
   xmlns:inkscape="http://www.inkscape.org/namespaces/inkscape"
   xmlns:sodipodi="http://sodipodi.sourceforge.net/DTD/sodipodi-0.dtd"
   xmlns="http://www.w3.org/2000/svg"
   xmlns:svg="http://www.w3.org/2000/svg"><defs
   id="defs20" /><sodipodi:namedview
   id="namedview18"
   pagecolor="#ffffff"
   bordercolor="#666666"
   borderopacity="1.0"
   inkscape:pageshadow="2"
   inkscape:pageopacity="0.0"
   inkscape:pagecheckerboard="0"
   showgrid="false"
   inkscape:zoom="0.63"
   inkscape:cx="173.01587"
   inkscape:cy="417.46032"
   inkscape:window-width="1920"
   inkscape:window-height="985"
   inkscape:window-x="0"
   inkscape:window-y="30"
   inkscape:window-maximized="1"
   inkscape:current-layer="svg16" />
<metadata
   id="metadata2"> Svg Vector Icons : http://www.onlinewebfonts.com/icon </metadata>
<g
   id="g14"><path
     d="M438.9,408.1c270.7,0,459.5-68.6,459.5-153.2V163c0-84.6-188.8-153.2-459.5-153.2C168.2,9.9,10,78.5,10,163v91.9C10,339.5,168.2,408.1,438.9,408.1z"
     id="path4" /><path
     d="M383.3,774.6c-185.9-6.9-294.5-49.3-351.6-106.1C17.1,683,10,698.4,10,714.5V837c0,84.6,158.2,153.1,428.9,153.1c27.1,0,53.5-0.8,79.4-2.2C448.7,938,399.1,862.3,383.3,774.6z"
     id="path6" /><path
     d="M377.7,713.1c0.3-81,29.1-155.2,77.1-213.2c-5.8,0-11.4,0.1-17.4,0.1c-219.5,0-343.2-45.1-405.6-107.2c-14.6,14.5-21.7,30-21.7,46v122.5C10,639.2,144.6,703.5,377.7,713.1z"
     id="path8" /><path
     d="M444.8,657.2c26.2-23.4,66.8-46.5,125-46.5c82.1,0,121.5,43.8,156.3,82.5c32,35.6,59.6,66.4,118.3,66.4c78.9,0,135.1-47.7,145.6-57.3c-6.4-146.6-127.2-263.6-275.4-263.6C581.9,438.7,471.2,532.4,444.8,657.2z"
     id="path10" /><path
     d="M697.1,719.4c-33.5-37.3-62.5-69.6-127.2-69.6c-91.7,0-128.4,72.5-128.7,73.2l-2.1-1c4,148.8,125.9,268.1,275.6,268.1c139,0,254-102.9,273-236.7c-30.2,20.2-80.3,45.2-143.2,45.2C768.3,798.7,730.5,756.5,697.1,719.4z"
     id="path12" /></g>
<path
   style="fill:#8cc84b;stroke:none;stroke-width:1.5873;fill-opacity:1"
   d="M 362.69841,405.49051 C 164.07192,393.83424 32.425376,343.39846 13.317659,271.63748 11.684494,265.50395 11.144137,249.90932 11.129951,208.50054 11.108615,146.22416 11.762609,141.76072 23.555843,123.69503 61.863624,65.01253 177.81881,25.586014 348.4127,13.238787 c 35.43165,-2.564469 146.14546,-2.565964 182.53968,-0.0025 193.74994,13.647159 328.5143,60.03428 359.94992,123.898043 l 5.12945,10.42085 v 61.93667 61.93668 l -5.20234,9.96177 c -11.52174,22.06254 -40.31062,45.66675 -76.66027,62.85429 C 750.43617,374.38005 664.16659,393.64346 550,403.23176 c -35.51137,2.98243 -151.19692,4.37753 -187.30159,2.25875 z"
   id="path1634" /><path
   style="fill:#8cc84b;stroke:none;stroke-width:1.5873;fill-opacity:1"
   d="m 829.22471,757.84684 c -7.06133,-0.68581 -18.41144,-3.11762 -25.22246,-5.404 -24.04888,-8.07294 -37.07763,-17.77497 -67.7716,-50.46697 -46.37848,-49.39752 -61.79122,-62.54063 -88.21003,-75.22043 -21.93856,-10.52947 -40.77325,-14.91268 -68.65554,-15.97749 -26.18142,-0.99985 -44.03633,0.87965 -64.73141,6.814 -18.2108,5.22197 -42.78099,17.38757 -57.10691,28.2757 -13.33284,10.13338 -13.06122,11.23092 -4.07858,-16.48075 12.32095,-38.01041 33.89158,-73.94436 62.02516,-103.32604 40.29904,-42.08686 84.9511,-67.50703 140.20703,-79.81907 123.66507,-27.55488 250.92522,34.43386 306.40701,149.25163 14.24314,29.47572 24.80479,68.62568 25.61697,94.95704 l 0.39089,12.67268 -14.06557,10.59 c -41.84899,31.50821 -98.14324,48.66559 -144.80496,44.1337 z"
   id="path1710" /><path
   style="fill:#8cc84b;stroke:none;stroke-width:1.5873;fill-opacity:1"
   d="M 688.28014,988.05498 C 643.52373,982.92478 600.59578,967.89176 565.87302,945.189 507.67728,907.13892 464.94555,847.82733 448.68018,782.52552 c -6.17918,-24.80803 -10.52539,-57.51542 -7.88065,-59.3058 0.81041,-0.54863 3.84051,-4.47528 6.73355,-8.72591 12.705,-18.66693 35.78764,-38.70372 56.43517,-48.98831 23.59685,-11.75366 54.20092,-16.94919 81.89073,-13.90228 19.69643,2.16735 33.56613,6.27345 48.94154,14.48908 20.36548,10.88199 29.94489,19.58017 74.14151,67.32104 28.99032,31.31516 53.25441,48.32882 82.32781,57.72723 51.62176,16.68748 119.64137,7.07237 176.98413,-25.01812 9.16666,-5.12991 16.93217,-9.10245 17.25668,-8.82788 1.43562,1.2147 -3.95368,23.85911 -10.35267,43.49908 -13.22158,40.58018 -35.06833,75.82678 -66.41096,107.14462 -22.00046,21.98306 -41.65058,36.47127 -67.47718,49.75156 -29.73468,15.28984 -52.42663,22.93273 -83.33333,28.06752 -18.07419,3.00281 -53.35237,4.16648 -69.65637,2.29763 z"
   id="path1786" /><path
   style="fill:#8cc84b;stroke:none;stroke-width:1.5873;fill-opacity:1"
   d="M 347.61905,710.84306 C 267.10646,704.43446 212.52311,695.67695 161.75383,681.02232 78.232298,656.9137 26.814013,621.76402 14.168938,580.13286 c -3.016243,-9.93032 -3.15787,-14.22875 -2.722954,-82.64259 l 0.458778,-72.16744 5.155215,-10.28046 c 2.835369,-5.65426 7.338706,-12.65687 10.007417,-15.56136 l 4.8522,-5.2809 6.65925,6.10333 c 40.325716,36.95931 103.806326,65.13359 183.300566,81.35338 56.05996,11.43832 109.87362,16.84947 184.87273,18.58959 l 45.64103,1.05896 -3.94479,4.90287 c -10.9756,13.64123 -27.62667,40.46276 -36.54775,58.87113 -20.89509,43.11634 -31.58976,83.1668 -33.90852,126.98412 l -1.00798,19.04762 -11.11111,0.15032 c -6.11112,0.0827 -14.3254,-0.10556 -18.25397,-0.4183 z"
   id="path1862" /><path
   style="fill:#8cc84b;stroke:none;stroke-width:1.5873;fill-opacity:1"
   d="M 375.39683,988.07537 C 213.93746,980.34452 94.211094,947.4916 40.677981,896.22846 27.107824,883.23373 18.328738,870.01857 14.169531,856.32529 11.152371,846.39194 11.01201,842.09292 11.446577,772.92604 L 11.904762,700 l 5.035426,-9.52381 c 2.769485,-5.23809 7.102506,-11.96035 9.628934,-14.93835 l 4.593508,-5.41454 11.799638,9.92661 c 64.192622,54.00297 165.805542,84.64602 310.959832,93.77505 15.25239,0.95926 27.98811,2.00059 28.3016,2.31409 0.31351,0.31349 1.91427,6.7215 3.55727,14.24001 14.41103,65.94591 54.09668,132.50305 105.48887,176.91629 8.73016,7.54462 17.61564,14.93746 19.74551,16.42852 2.12986,1.49108 3.51876,3.06476 3.08644,3.49708 -1.53068,1.53068 -110.55496,2.20227 -138.70496,0.85442 z"
   id="path1938" /></svg>
