<?xml version="1.0" encoding="UTF-8" standalone="no"?>
<!-- Created with Inkscape (http://www.inkscape.org/) -->
<svg xmlns:dc="http://purl.org/dc/elements/1.1/" xmlns:cc="http://creativecommons.org/ns#" xmlns:rdf="http://www.w3.org/1999/02/22-rdf-syntax-ns#" xmlns:svg="http://www.w3.org/2000/svg" xmlns="http://www.w3.org/2000/svg" xmlns:xlink="http://www.w3.org/1999/xlink" xmlns:sodipodi="http://sodipodi.sourceforge.net/DTD/sodipodi-0.dtd" xmlns:inkscape="http://www.inkscape.org/namespaces/inkscape" width="608.80005" height="578.52856" id="svg2" version="1.1" inkscape:version="0.48.2 r9819" sodipodi:docname="mvc.svg">
  <defs id="defs4">
    <linearGradient inkscape:collect="always" id="linearGradient9789">
      <stop style="stop-color:#f2f2f2;stop-opacity:1;" offset="0" id="stop9791"/>
      <stop style="stop-color:#f2f2f2;stop-opacity:0;" offset="1" id="stop9793"/>
    </linearGradient>
    <linearGradient id="linearGradient9764">
      <stop style="stop-color:#dddddd;stop-opacity:1;" offset="0" id="stop9766"/>
      <stop id="stop9880" offset="0.09722222" style="stop-color:#ebebeb;stop-opacity:1;"/>
      <stop style="stop-color:#fafafa;stop-opacity:1;" offset="1" id="stop9768"/>
    </linearGradient>
    <marker inkscape:stockid="TriangleOutM" orient="auto" refY="0" refX="0" id="TriangleOutM" style="overflow:visible">
      <path id="path3942" d="m 5.77,0 -8.65,5 0,-10 8.65,5 z" style="fill-rule:evenodd;stroke:#000000;stroke-width:1pt;marker-start:none" transform="scale(0.4,0.4)" inkscape:connector-curvature="0"/>
    </marker>
    <marker inkscape:stockid="Arrow1Mend" orient="auto" refY="0" refX="0" id="Arrow1Mend" style="overflow:visible">
      <path id="path3805" d="M 0,0 5,-5 -12.5,0 5,5 0,0 z" style="fill-rule:evenodd;stroke:#000000;stroke-width:1pt;marker-start:none" transform="matrix(-0.4,0,0,-0.4,-4,0)" inkscape:connector-curvature="0"/>
    </marker>
    <linearGradient y2="35.739632" x2="21.408455" y1="36.3904" x1="22.686766" gradientTransform="matrix(-0.977685,0.210075,0.210075,0.977685,55.5471,-4.007709)" gradientUnits="userSpaceOnUse" id="linearGradient13791" xlink:href="#linearGradient4356" inkscape:collect="always"/>
    <linearGradient y2="36.217758" x2="22.626925" y1="35.817974" x1="20.661695" gradientTransform="matrix(0.983375,0.181588,-0.181588,0.983375,6.231716,-2.651466)" gradientUnits="userSpaceOnUse" id="linearGradient13789" xlink:href="#linearGradient4356" inkscape:collect="always"/>
    <radialGradient r="9.1620579" fy="17.064077" fx="29.344931" cy="17.064077" cx="29.344931" gradientTransform="matrix(0.787998,0,0,0.787998,6.221198,3.617627)" gradientUnits="userSpaceOnUse" id="radialGradient13787" xlink:href="#linearGradient3800" inkscape:collect="always"/>
    <radialGradient r="8.6620579" fy="19.008621" fx="31.112698" cy="19.008621" cx="31.112698" gradientUnits="userSpaceOnUse" id="radialGradient13785" xlink:href="#linearGradient3816" inkscape:collect="always"/>
    <linearGradient y2="35.803486" x2="30.935921" y1="29.553486" x1="30.935921" gradientUnits="userSpaceOnUse" id="linearGradient13783" xlink:href="#linearGradient3824" inkscape:collect="always"/>
    <radialGradient r="8.6620579" fy="19.008621" fx="31.112698" cy="19.008621" cx="31.112698" gradientUnits="userSpaceOnUse" id="radialGradient13779" xlink:href="#linearGradient3816" inkscape:collect="always"/>
    <linearGradient id="linearGradient3800">
      <stop id="stop3802" offset="0.0000000" style="stop-color:#f4d9b1;stop-opacity:1.0000000;"/>
      <stop id="stop3804" offset="1.0000000" style="stop-color:#df9725;stop-opacity:1.0000000;"/>
    </linearGradient>
    <linearGradient id="linearGradient3816" inkscape:collect="always">
      <stop id="stop3818" offset="0" style="stop-color:#000000;stop-opacity:1;"/>
      <stop id="stop3820" offset="1" style="stop-color:#000000;stop-opacity:0;"/>
    </linearGradient>
    <linearGradient id="linearGradient3824">
      <stop id="stop3826" offset="0" style="stop-color:#ffffff;stop-opacity:1;"/>
      <stop id="stop3828" offset="1.0000000" style="stop-color:#c9c9c9;stop-opacity:1.0000000;"/>
    </linearGradient>
    <linearGradient id="linearGradient4356" inkscape:collect="always">
      <stop id="stop4358" offset="0" style="stop-color:#000000;stop-opacity:1;"/>
      <stop id="stop4360" offset="1" style="stop-color:#000000;stop-opacity:0;"/>
    </linearGradient>
    <linearGradient inkscape:collect="always" xlink:href="#XMLID_14_-7" id="linearGradient6425-1" gradientUnits="userSpaceOnUse" gradientTransform="translate(-5.4541145,369.70609)" x1="37.9482" y1="81.5625" x2="110.0508" y2="81.5625"/>
    <linearGradient gradientTransform="translate(-37,-40)" id="XMLID_14_-7" gradientUnits="userSpaceOnUse" x1="37.9482" y1="81.5625" x2="110.0508" y2="81.5625">
      <stop offset="0" style="stop-color:#ACAABF" id="stop5753-1"/>
      <stop offset="0.09" style="stop-color:#65647F" id="stop5755-1"/>
      <stop offset="0.5" style="stop-color:#B1AFC5" id="stop5757-5"/>
      <stop offset="0.6629" style="stop-color:#88879F" id="stop5759-2"/>
      <stop offset="0.7753" style="stop-color:#8685A6" id="stop5761-7"/>
      <stop offset="0.8596" style="stop-color:#666681" id="stop5763-6"/>
      <stop offset="1" style="stop-color:#9D9CB2" id="stop5765-1"/>
    </linearGradient>
    <radialGradient inkscape:collect="always" xlink:href="#XMLID_15_-2" id="radialGradient6427-4" gradientUnits="userSpaceOnUse" gradientTransform="matrix(1,0,0,1.0014,0,0.6141)" cx="74" cy="58.305199" r="37.160301"/>
    <radialGradient id="XMLID_15_-2" cx="74" cy="58.305199" r="37.160301" gradientTransform="matrix(1,0,0,1.0014,0,0.6141)" gradientUnits="userSpaceOnUse">
      <stop offset="0" style="stop-color:#E0E0E0" id="stop5770-3"/>
      <stop offset="1" style="stop-color:#BFC0BF" id="stop5772-2"/>
    </radialGradient>
    <linearGradient id="XMLID_16_-1" gradientUnits="userSpaceOnUse" x1="38" y1="72.851601" x2="110" y2="72.851601" gradientTransform="matrix(1,0,0,1.0014,-37,-39.3859)">
      <stop offset="0" style="stop-color:#BFBEBF" id="stop5777-6"/>
      <stop offset="0.5" style="stop-color:#FBFBFB" id="stop5779-8"/>
      <stop offset="1" style="stop-color:#BFBEBF" id="stop5781-5"/>
    </linearGradient>
    <linearGradient y2="72.851601" x2="110" y1="72.851601" x1="38" gradientTransform="matrix(1,0,0,1.0014,-5.4541145,370.32019)" gradientUnits="userSpaceOnUse" id="linearGradient7796" xlink:href="#XMLID_16_-1" inkscape:collect="always"/>
    <linearGradient inkscape:collect="always" xlink:href="#linearGradient9764" id="linearGradient9770" x1="170.65964" y1="479.03085" x2="170.65964" y2="339.97086" gradientUnits="userSpaceOnUse"/>
    <linearGradient inkscape:collect="always" xlink:href="#linearGradient9789" id="linearGradient9795" x1="44.659641" y1="408.03085" x2="293.57515" y2="408.03085" gradientUnits="userSpaceOnUse"/>
    <linearGradient inkscape:collect="always" id="linearGradient9764-0">
      <stop style="stop-color:#f2f2f2;stop-opacity:1;" offset="0" id="stop9766-9"/>
      <stop style="stop-color:#f2f2f2;stop-opacity:0;" offset="1" id="stop9768-0"/>
    </linearGradient>
    <linearGradient gradientTransform="translate(0,-3.9746093e-6)" y2="339.97086" x2="170.65964" y1="479.03085" x1="170.65964" gradientUnits="userSpaceOnUse" id="linearGradient9787" xlink:href="#linearGradient9764-0" inkscape:collect="always"/>
    <linearGradient inkscape:collect="always" id="linearGradient9764-1">
      <stop style="stop-color:#f2f2f2;stop-opacity:1;" offset="0" id="stop9766-3"/>
      <stop style="stop-color:#f2f2f2;stop-opacity:0;" offset="1" id="stop9768-8"/>
    </linearGradient>
    <linearGradient gradientTransform="translate(3.5424805e-6,8.578125e-6)" y2="339.97086" x2="170.65964" y1="479.03085" x1="170.65964" gradientUnits="userSpaceOnUse" id="linearGradient9787-9" xlink:href="#linearGradient9764-1" inkscape:collect="always"/>
    <linearGradient inkscape:collect="always" xlink:href="#linearGradient9764-1" id="linearGradient9832" gradientUnits="userSpaceOnUse" gradientTransform="translate(160,193.69824)" x1="170.65964" y1="479.03085" x2="170.65964" y2="339.97086"/>
    <linearGradient y2="339.97086" x2="170.65964" y1="479.03085" x1="170.65964" gradientTransform="translate(3.5488281e-6,0)" gradientUnits="userSpaceOnUse" id="linearGradient9849" xlink:href="#linearGradient9764" inkscape:collect="always"/>
    <linearGradient inkscape:collect="always" xlink:href="#linearGradient9764" id="linearGradient9873" gradientUnits="userSpaceOnUse" x1="170.65964" y1="479.03085" x2="170.65964" y2="339.97086"/>
    <linearGradient inkscape:collect="always" xlink:href="#linearGradient9764" id="linearGradient9902" gradientUnits="userSpaceOnUse" gradientTransform="translate(0,-3.9746093e-6)" x1="170.65964" y1="479.03085" x2="170.65964" y2="339.97086"/>
  </defs>
  <sodipodi:namedview id="base" pagecolor="#ffffff" bordercolor="#666666" borderopacity="1.0" inkscape:pageopacity="0.0" inkscape:pageshadow="2" inkscape:zoom="1" inkscape:cx="270.06352" inkscape:cy="296.56189" inkscape:document-units="px" inkscape:current-layer="layer1" showgrid="false" fit-margin-top="10" fit-margin-left="10" fit-margin-right="10" fit-margin-bottom="10" inkscape:window-width="1280" inkscape:window-height="1002" inkscape:window-x="-8" inkscape:window-y="97" inkscape:window-maximized="1"/>
  <metadata id="metadata7">
    <rdf:RDF>
      <cc:Work rdf:about="">
        <dc:format>image/svg+xml</dc:format>
        <dc:type rdf:resource="http://purl.org/dc/dcmitype/StillImage"/>
        <dc:title/>
      </cc:Work>
    </rdf:RDF>
  </metadata>
  <g inkscape:label="Layer 1" inkscape:groupmode="layer" id="layer1" transform="translate(-34.659641,-250.31064)">
    <path style="fill:none;stroke:#000000;stroke-width:3.29999995;stroke-linecap:butt;stroke-linejoin:miter;stroke-miterlimit:4;stroke-opacity:1;stroke-dasharray:none;marker-end:url(#Arrow1Mend)" d="m 483.01477,333.00148 c 0.005,-70.58394 -257.33291,-57.18518 -287.73933,-34.31811 -10.82885,8.1438 -17.00429,17.13943 -22.34605,27.09242" id="path3023" inkscape:connector-curvature="0" sodipodi:nodetypes="csc"/>
    <path sodipodi:nodetypes="csc" inkscape:connector-curvature="0" id="path4980" d="m 166.40917,484.46196 c 0,60.4559 -1.70965,156.30522 2.19276,199.2917 3.70602,40.82313 10.37531,34.33988 33.99185,34.33988" style="fill:none;stroke:#000000;stroke-width:3.29999995;stroke-linecap:butt;stroke-linejoin:miter;stroke-miterlimit:4;stroke-opacity:1;stroke-dasharray:none;marker-end:url(#Arrow1Mend)"/>
    <path style="fill:none;stroke:#000000;stroke-width:3.29999995;stroke-linecap:butt;stroke-linejoin:miter;stroke-miterlimit:4;stroke-opacity:1;stroke-dasharray:none;marker-end:url(#Arrow1Mend)" d="m 452.63417,718.09354 c 48.48459,0 38.18461,-111.76231 38.18461,-229.63158" id="path4990" inkscape:connector-curvature="0" sodipodi:nodetypes="cc"/>
    <g id="g3002">
      <g id="g9868">
        <rect style="color:#000000;fill:url(#linearGradient9873);fill-opacity:1.0;stroke:#000000;stroke-width:1;stroke-linecap:round;stroke-linejoin:bevel;stroke-miterlimit:4;stroke-opacity:1;stroke-dasharray:none;stroke-dashoffset:0;marker:none;visibility:visible;display:inline;overflow:visible;enable-background:accumulate" id="rect2996" width="247.91551" height="153.22021" x="45.159641" y="331.42075"/>
        <text xml:space="preserve" style="font-size:32.07212448px;font-style:normal;font-weight:normal;line-height:125%;letter-spacing:0px;word-spacing:0px;fill:#000000;fill-opacity:1;stroke:none;font-family:Sans" x="111.44082" y="389.51761" id="text2998" sodipodi:linespacing="125%"><tspan sodipodi:role="line" id="tspan3000" x="111.44082" y="389.51761">MODEL</tspan></text>
      </g>
      <g id="g6417" transform="translate(33.113755,19.434873)">
        <path id="path5746" d="m 32.731886,420.63109 v 52.646 c 0,7.457 18.452,11.479 35.814,11.479 17.362002,0 35.814004,-4.022 35.814004,-11.479 v -52.646 c 0,-6.479 -18.452002,-9.975 -35.814004,-9.975 -17.362,0 -35.814,3.496 -35.814,9.975 z" inkscape:connector-curvature="0" style="opacity:0.3;fill:#141414"/>
        <path id="path5748" d="m 68.545886,413.50609 c -19.912,0 -36.052,4.042 -36.052,9.025 v 52.646 c 0,5.814 16.14,10.529 36.052,10.529 19.912002,0 36.051004,-4.715 36.051004,-10.529 v -52.646 c 0,-4.984 -16.139002,-9.025 -36.051004,-9.025 z" inkscape:connector-curvature="0" style="opacity:0.2;fill:#141414"/>
        <path id="path5750" d="m 31.545886,419.68109 v 52.646 c 0,7.456 19.063,11.479 37,11.479 17.937002,0 37.000004,-4.022 37.000004,-11.479 v -52.646 c 0,-6.479 -19.063002,-9.975 -37.000004,-9.975 -17.937,0 -37,3.496 -37,9.975 z" inkscape:connector-curvature="0" style="opacity:0.5;fill:#141414"/>
        <path id="path5767" d="m 32.493886,419.68109 v 52.646 c 0,5.813 16.14,10.529 36.052,10.529 19.912002,0 36.051004,-4.716 36.051004,-10.529 v -52.646 H 32.493886 z" inkscape:connector-curvature="0" style="fill:url(#linearGradient6425-1)"/>
        <ellipse id="ellipse5774" ry="9.0249996" rx="36.050999" cy="49.974998" cx="74" sodipodi:cx="74" sodipodi:cy="49.974998" sodipodi:rx="36.050999" sodipodi:ry="9.0249996" style="fill:url(#radialGradient6427-4)" transform="translate(-5.4541145,369.70609)" d="m 110.051,49.974998 c 0,4.98437 -16.140583,9.025 -36.051,9.025 -19.910417,0 -36.050999,-4.04063 -36.050999,-9.025 0,-4.984369 16.140582,-9.024999 36.050999,-9.024999 19.910417,0 36.051,4.04063 36.051,9.024999 z"/>
        <path id="path5783" d="m 68.545886,464.70409 c -18.63,0 -34.104,-3.875 -36,-8.844 0,0.545 0,0.688 0,1.04 0,5.458 16.088,9.885 36,9.885 19.912002,0 36.000004,-4.427 36.000004,-9.885 0,-0.352 0,-0.495 0,-1.04 -1.896,4.969 -17.370002,8.844 -36.000004,8.844 z m 0,-18.05 c -18.63,0 -34.104,-3.875 -36,-8.844 0,0.48 0,0.688 0,1.04 0,5.459 16.088,9.885 36,9.885 19.912002,0 36.000004,-4.426 36.000004,-9.885 0,-0.352 0,-0.445 0,-1.04 -1.896,4.969 -17.370002,8.844 -36.000004,8.844 z m 0,-15.969 c 19.912002,0 36.000004,-4.426 36.000004,-9.885 0,-0.352 0,-0.395 0,-1.04 -1.896,4.969 -17.370002,8.844 -36.000004,8.844 -18.63,0 -34.104,-3.875 -36,-8.844 0,0.646 0,0.688 0,1.04 0,5.459 16.088,9.885 36,9.885 z" inkscape:connector-curvature="0" style="fill:url(#linearGradient7796)"/>
      </g>
    </g>
    <g id="g3007" transform="translate(320,0)">
      <g id="g9875">
        <rect style="color:#000000;fill:url(#linearGradient9902);fill-opacity:1;stroke:#000000;stroke-width:1;stroke-linecap:round;stroke-linejoin:bevel;stroke-miterlimit:4;stroke-opacity:1;stroke-dasharray:none;stroke-dashoffset:0;marker:none;visibility:visible;display:inline;overflow:visible;enable-background:accumulate" id="rect2996-0" width="247.91551" height="153.22021" x="45.159637" y="331.42075"/>
        <text sodipodi:linespacing="125%" id="text3011" y="389.51761" x="58.8773" style="font-size:32.07212448px;font-style:normal;font-weight:normal;line-height:125%;letter-spacing:0px;word-spacing:0px;fill:#000000;fill-opacity:1;stroke:none;font-family:Sans" xml:space="preserve"><tspan y="389.51761" x="58.8773" id="tspan3013" sodipodi:role="line">CONTROLLER</tspan></text>
      </g>
      <g transform="matrix(1.294797,0.26273445,0,1.5386833,29.013366,-263.63558)" id="g9578">
        <rect y="436.06195" x="21.896881" height="48.464909" width="63.883308" id="rect8165" style="color:#000000;fill:#ececec;fill-opacity:1;stroke:#000000;stroke-width:1;stroke-linecap:round;stroke-linejoin:bevel;stroke-miterlimit:4;stroke-opacity:1;stroke-dasharray:none;stroke-dashoffset:0;marker:none;visibility:visible;display:inline;overflow:visible;enable-background:accumulate"/>
        <g inkscape:label="Layer 1" id="layer1-4" transform="matrix(0.1797589,0,0,0.1797589,13.604177,450.82911)">
          <path sodipodi:type="arc" style="fill:none;stroke:#000000;stroke-width:4.85124016;stroke-linejoin:round;stroke-miterlimit:4;stroke-opacity:1;stroke-dasharray:none;stroke-dashoffset:0" id="path5963" sodipodi:cx="202.85715" sodipodi:cy="272.36218" sodipodi:rx="82.85714" sodipodi:ry="82.85714" d="m 285.71429,272.36218 c 0,45.76074 -37.09641,82.85714 -82.85714,82.85714 -45.76074,0 -82.85714,-37.0964 -82.85714,-82.85714 0,-45.76073 37.0964,-82.85714 82.85714,-82.85714 45.76073,0 82.85714,37.09641 82.85714,82.85714 z" transform="matrix(0.41226573,0,0,0.41226573,50.026683,-111.45331)"/>
          <path transform="matrix(0.41226573,0,0,0.41226573,194.31239,-111.45331)" d="m 285.71429,272.36218 c 0,45.76074 -37.09641,82.85714 -82.85714,82.85714 -45.76074,0 -82.85714,-37.0964 -82.85714,-82.85714 0,-45.76073 37.0964,-82.85714 82.85714,-82.85714 45.76073,0 82.85714,37.09641 82.85714,82.85714 z" sodipodi:ry="82.85714" sodipodi:rx="82.85714" sodipodi:cy="272.36218" sodipodi:cx="202.85715" id="path5965" style="fill:none;stroke:#000000;stroke-width:4.85124016;stroke-linejoin:round;stroke-miterlimit:4;stroke-opacity:1;stroke-dasharray:none;stroke-dashoffset:0" sodipodi:type="arc"/>
          <path style="fill:none;stroke:#000000;stroke-width:3.78284478;stroke-linecap:butt;stroke-linejoin:miter;stroke-miterlimit:4;stroke-opacity:1;stroke-dasharray:none;marker-end:url(#TriangleOutM)" d="m 161.89307,-24.671846 c 34.90944,-24.76227 59.3997,-15.38849 79.28571,-0.71428" id="path5967" inkscape:connector-curvature="0" sodipodi:nodetypes="cc"/>
          <text sodipodi:linespacing="125%" id="text5973" y="9.7801065" x="262.73956" style="font-size:40px;font-style:normal;font-weight:normal;line-height:125%;letter-spacing:0px;word-spacing:0px;fill:#000000;fill-opacity:1;stroke:none;font-family:Bitstream Vera Sans" xml:space="preserve"><tspan style="font-size:25px;font-style:normal;font-variant:normal;font-weight:normal;font-stretch:normal;text-align:start;line-height:125%;writing-mode:lr-tb;text-anchor:start;font-family:Sans;-inkscape-font-specification:Sans" y="9.7801065" x="262.73956" id="tspan5975" sodipodi:role="line">S2</tspan></text>
          <text sodipodi:linespacing="125%" id="text5977" y="9.7801065" x="120.08963" style="font-size:40px;font-style:normal;font-weight:normal;line-height:125%;letter-spacing:0px;word-spacing:0px;fill:#000000;fill-opacity:1;stroke:none;font-family:Bitstream Vera Sans" xml:space="preserve"><tspan style="font-size:25px;font-style:normal;font-variant:normal;font-weight:normal;font-stretch:normal;text-align:start;line-height:125%;writing-mode:lr-tb;text-anchor:start;font-family:Sans;-inkscape-font-specification:Sans" y="9.7801065" x="120.08963" id="tspan5979" sodipodi:role="line">S1</tspan></text>
          <path style="fill:none;stroke:#000000;stroke-width:3.78284478;stroke-linecap:butt;stroke-linejoin:miter;stroke-miterlimit:4;stroke-opacity:1;stroke-dasharray:none;marker-end:url(#TriangleOutM)" d="m 59.960363,0.8322844 30.71429,0" id="path5981" inkscape:connector-curvature="0" sodipodi:nodetypes="cc"/>
          <g id="g6057" transform="translate(76.800583,-474.67275)">
            <g id="g5983" transform="translate(119.28572,311.42857)">
              <path transform="matrix(0.41226573,0,0,0.41226573,71.36895,175.07659)" d="m 285.71429,272.36218 c 0,45.76074 -37.09641,82.85714 -82.85714,82.85714 -45.76074,0 -82.85714,-37.0964 -82.85714,-82.85714 0,-45.76073 37.0964,-82.85714 82.85714,-82.85714 45.76073,0 82.85714,37.09641 82.85714,82.85714 z" sodipodi:ry="82.85714" sodipodi:rx="82.85714" sodipodi:cy="272.36218" sodipodi:cx="202.85715" id="path5985" style="fill:none;stroke:#000000;stroke-width:4.85124016;stroke-linejoin:round;stroke-miterlimit:4;stroke-opacity:1;stroke-dasharray:none;stroke-dashoffset:0" sodipodi:type="arc"/>
              <path sodipodi:type="arc" style="fill:none;stroke:#000000;stroke-width:4.85124016;stroke-linejoin:round;stroke-miterlimit:4;stroke-opacity:1;stroke-dasharray:none;stroke-dashoffset:0" id="path5987" sodipodi:cx="202.85715" sodipodi:cy="272.36218" sodipodi:rx="82.85714" sodipodi:ry="82.85714" d="m 285.71429,272.36218 c 0,45.76074 -37.09641,82.85714 -82.85714,82.85714 -45.76074,0 -82.85714,-37.0964 -82.85714,-82.85714 0,-45.76073 37.0964,-82.85714 82.85714,-82.85714 45.76073,0 82.85714,37.09641 82.85714,82.85714 z" transform="matrix(0.33269848,0,0,0.33269848,87.50974,196.7477)"/>
            </g>
            <text sodipodi:linespacing="125%" id="text5989" y="607.73846" x="258.9903" style="font-size:40px;font-style:normal;font-weight:normal;line-height:125%;letter-spacing:0px;word-spacing:0px;fill:#000000;fill-opacity:1;stroke:none;font-family:Bitstream Vera Sans" xml:space="preserve"><tspan style="font-size:25px;font-style:normal;font-variant:normal;font-weight:normal;font-stretch:normal;text-align:start;line-height:125%;writing-mode:lr-tb;text-anchor:start;font-family:Sans;-inkscape-font-specification:Sans" y="607.73846" x="258.9903" id="tspan5991" sodipodi:role="line">S4</tspan></text>
          </g>
          <path sodipodi:nodetypes="cc" inkscape:connector-curvature="0" id="path5993" d="m 314.53398,10.014484 c 38.89947,17.85133 43.02667,43.74741 40.26144,68.3063" style="fill:none;stroke:#000000;stroke-width:3.78284478;stroke-linecap:butt;stroke-linejoin:miter;stroke-miterlimit:4;stroke-opacity:1;stroke-dasharray:none;marker-end:url(#TriangleOutM)"/>
          <path sodipodi:nodetypes="cc" inkscape:connector-curvature="0" id="path5995" d="m 250.73323,26.446734 c -34.90944,24.76227 -59.3997,15.38849 -79.28571,0.71428" style="fill:none;stroke:#000000;stroke-width:3.78284478;stroke-linecap:butt;stroke-linejoin:miter;stroke-miterlimit:4;stroke-opacity:1;stroke-dasharray:none;marker-end:url(#TriangleOutM)"/>
          <g id="g6052" transform="translate(90.372012,-494.67275)">
            <path transform="matrix(0.41226573,0,0,0.41226573,23.511814,511.50516)" d="m 285.71429,272.36218 c 0,45.76074 -37.09641,82.85714 -82.85714,82.85714 -45.76074,0 -82.85714,-37.0964 -82.85714,-82.85714 0,-45.76073 37.0964,-82.85714 82.85714,-82.85714 45.76073,0 82.85714,37.09641 82.85714,82.85714 z" sodipodi:ry="82.85714" sodipodi:rx="82.85714" sodipodi:cy="272.36218" sodipodi:cx="202.85715" id="path6030" style="fill:none;stroke:#000000;stroke-width:4.85124016;stroke-linejoin:round;stroke-miterlimit:4;stroke-opacity:1;stroke-dasharray:none;stroke-dashoffset:0" sodipodi:type="arc"/>
            <text sodipodi:linespacing="125%" id="text6032" y="632.73859" x="91.938957" style="font-size:40px;font-style:normal;font-weight:normal;line-height:125%;letter-spacing:0px;word-spacing:0px;fill:#000000;fill-opacity:1;stroke:none;font-family:Bitstream Vera Sans" xml:space="preserve"><tspan style="font-size:25px;font-style:normal;font-variant:normal;font-weight:normal;font-stretch:normal;text-align:start;line-height:125%;writing-mode:lr-tb;text-anchor:start;font-family:Sans;-inkscape-font-specification:Sans" y="632.73859" x="91.938957" id="tspan6034" sodipodi:role="line">S3</tspan></text>
          </g>
          <path style="fill:none;stroke:#000000;stroke-width:3.78284478;stroke-linecap:butt;stroke-linejoin:miter;stroke-miterlimit:4;stroke-opacity:1;stroke-dasharray:none;marker-end:url(#TriangleOutM)" d="m 318.70805,144.5644 c -34.90944,24.76227 -59.3997,15.38849 -79.28571,0.71428" id="path6064" inkscape:connector-curvature="0" sodipodi:nodetypes="cc"/>
          <path sodipodi:nodetypes="cc" inkscape:connector-curvature="0" id="path6066" d="m 229.32164,109.66424 c 34.90944,-24.762266 59.3997,-15.388486 79.28571,-0.71428" style="fill:none;stroke:#000000;stroke-width:3.78284478;stroke-linecap:butt;stroke-linejoin:miter;stroke-miterlimit:4;stroke-opacity:1;stroke-dasharray:none;marker-end:url(#TriangleOutM)"/>
          <path style="fill:none;stroke:#000000;stroke-width:3.78284478;stroke-linecap:butt;stroke-linejoin:miter;stroke-miterlimit:4;stroke-opacity:1;stroke-dasharray:none;marker-end:url(#TriangleOutM)" d="M 164.57434,114.42019 C 125.67487,96.568866 121.54767,70.672784 124.3129,46.113894" id="path6072" inkscape:connector-curvature="0" sodipodi:nodetypes="cc"/>
          <path style="fill:none;stroke:#000000;stroke-width:3.78284478;stroke-linecap:butt;stroke-linejoin:miter;stroke-miterlimit:4;stroke-opacity:1;stroke-dasharray:none;marker-end:url(#TriangleOutM)" d="m 265.83404,-35.881996 c -24.37627,-42.619419 72.25684,-41.102779 40.71428,0" id="path6078" inkscape:connector-curvature="0" sodipodi:nodetypes="cc"/>
        </g>
      </g>
    </g>
    <g transform="translate(160,313.69823)" id="g3015">
      <rect y="331.42072" x="45.159641" height="153.22021" width="247.91551" id="rect2996-3" style="color:#000000;fill:url(#linearGradient9849);fill-opacity:1.0;stroke:#000000;stroke-width:1;stroke-linecap:round;stroke-linejoin:bevel;stroke-miterlimit:4;stroke-opacity:1;stroke-dasharray:none;stroke-dashoffset:0;marker:none;visibility:visible;display:inline;overflow:visible;enable-background:accumulate"/>
      <text sodipodi:linespacing="125%" id="text3019" y="389.5098" x="128.22073" style="font-size:32.07212448px;font-style:normal;font-weight:normal;line-height:125%;letter-spacing:0px;word-spacing:0px;fill:#000000;fill-opacity:1;stroke:none;font-family:Sans" xml:space="preserve"><tspan y="389.5098" x="128.22073" id="tspan3021" sodipodi:role="line">VIEW</tspan></text>
    </g>
    <g id="g4975">
      <path transform="translate(3.1614669,11.644955)" d="m 381.43771,272.95514 c 0,13.13855 -26.89804,23.78945 -60.07846,23.78945 -33.18041,0 -60.07845,-10.6509 -60.07845,-23.78945 0,-13.13855 26.89804,-23.78946 60.07845,-23.78946 33.18042,0 60.07846,10.65091 60.07846,23.78946 z" sodipodi:ry="23.789455" sodipodi:rx="60.078453" sodipodi:cy="272.95514" sodipodi:cx="321.35925" id="path4969" style="color:#000000;fill:#f2f2f2;fill-opacity:1;stroke:#000000;stroke-width:1;stroke-linecap:round;stroke-linejoin:bevel;stroke-miterlimit:4;stroke-opacity:1;stroke-dasharray:none;stroke-dashoffset:0;marker:none;visibility:visible;display:inline;overflow:visible;enable-background:accumulate" sodipodi:type="arc"/>
      <text sodipodi:linespacing="125%" id="text4971" y="291.49295" x="276.71979" style="font-size:26.66021347px;font-style:normal;font-weight:normal;line-height:125%;letter-spacing:0px;word-spacing:0px;fill:#000000;fill-opacity:1;stroke:none;font-family:Sans" xml:space="preserve"><tspan y="291.49295" x="276.71979" id="tspan4973" sodipodi:role="line">updates</tspan></text>
    </g>
    <g id="g4982" transform="translate(-157.63948,283.83945)">
      <path sodipodi:type="arc" style="color:#000000;fill:#f2f2f2;fill-opacity:1;stroke:#000000;stroke-width:1;stroke-linecap:round;stroke-linejoin:bevel;stroke-miterlimit:4;stroke-opacity:1;stroke-dasharray:none;stroke-dashoffset:0;marker:none;visibility:visible;display:inline;overflow:visible;enable-background:accumulate" id="path4984" sodipodi:cx="321.35925" sodipodi:cy="272.95514" sodipodi:rx="60.078453" sodipodi:ry="23.789455" d="m 381.43771,272.95514 c 0,13.13855 -26.89804,23.78945 -60.07846,23.78945 -33.18041,0 -60.07845,-10.6509 -60.07845,-23.78945 0,-13.13855 26.89804,-23.78946 60.07845,-23.78946 33.18042,0 60.07846,10.65091 60.07846,23.78946 z" transform="translate(3.1614669,11.644955)"/>
      <text xml:space="preserve" style="font-size:26.66021347px;font-style:normal;font-weight:normal;line-height:125%;letter-spacing:0px;word-spacing:0px;fill:#000000;fill-opacity:1;stroke:none;font-family:Sans" x="305.64508" y="293.98584" id="text4986" sodipodi:linespacing="125%"><tspan sodipodi:role="line" id="tspan4988" x="305.64508" y="293.98584">fills</tspan></text>
    </g>
    <g transform="translate(166.36052,281.83945)" id="g4992">
      <path transform="translate(3.1614669,11.644955)" d="m 381.43771,272.95514 c 0,13.13855 -26.89804,23.78945 -60.07846,23.78945 -33.18041,0 -60.07845,-10.6509 -60.07845,-23.78945 0,-13.13855 26.89804,-23.78946 60.07845,-23.78946 33.18042,0 60.07846,10.65091 60.07846,23.78946 z" sodipodi:ry="23.789455" sodipodi:rx="60.078453" sodipodi:cy="272.95514" sodipodi:cx="321.35925" id="path4994" style="color:#000000;fill:#f2f2f2;fill-opacity:1;stroke:#000000;stroke-width:1;stroke-linecap:round;stroke-linejoin:bevel;stroke-miterlimit:4;stroke-opacity:1;stroke-dasharray:none;stroke-dashoffset:0;marker:none;visibility:visible;display:inline;overflow:visible;enable-background:accumulate" sodipodi:type="arc"/>
      <text sodipodi:linespacing="125%" id="text4996" y="293.98584" x="290.16055" style="font-size:26.66021347px;font-style:normal;font-weight:normal;line-height:125%;letter-spacing:0px;word-spacing:0px;fill:#000000;fill-opacity:1;stroke:none;font-family:Sans" xml:space="preserve"><tspan y="293.98584" x="290.16055" id="tspan4998" sodipodi:role="line">writes</tspan></text>
    </g>
    <path sodipodi:nodetypes="cc" inkscape:connector-curvature="0" id="path5000" d="m 576.81878,486.46196 c 0,117.86927 15.94494,273.17838 -117.21398,273.17838" style="fill:none;stroke:#000000;stroke-width:3.3;stroke-linecap:butt;stroke-linejoin:miter;stroke-miterlimit:4;stroke-opacity:1;stroke-dasharray:6.6,6.6;marker-end:url(#Arrow1Mend);stroke-dashoffset:0"/>
    <g id="g5002" transform="translate(248.36052,351.83945)">
      <path sodipodi:type="arc" style="color:#000000;fill:#f2f2f2;fill-opacity:1;stroke:#000000;stroke-width:1;stroke-linecap:round;stroke-linejoin:bevel;stroke-miterlimit:4;stroke-opacity:1;stroke-dasharray:none;stroke-dashoffset:0;marker:none;visibility:visible;display:inline;overflow:visible;enable-background:accumulate" id="path5004" sodipodi:cx="321.35925" sodipodi:cy="272.95514" sodipodi:rx="60.078453" sodipodi:ry="23.789455" d="m 381.43771,272.95514 c 0,13.13855 -26.89804,23.78945 -60.07846,23.78945 -33.18041,0 -60.07845,-10.6509 -60.07845,-23.78945 0,-13.13855 26.89804,-23.78946 60.07845,-23.78946 33.18042,0 60.07846,10.65091 60.07846,23.78946 z" transform="translate(3.1614669,11.644955)"/>
      <text xml:space="preserve" style="font-size:26.66021347px;font-style:normal;font-weight:normal;line-height:125%;letter-spacing:0px;word-spacing:0px;fill:#000000;fill-opacity:1;stroke:none;font-family:Sans" x="281.90082" y="294.14856" id="text5006" sodipodi:linespacing="125%"><tspan sodipodi:role="line" id="tspan5008" x="281.90082" y="294.14856">notifies</tspan></text>
    </g>
    <g id="g5568" transform="matrix(2.4057889,0,0,2.4057889,213.54386,727.09438)">
      <g transform="translate(-2.483115,-3.846563)" style="display:inline" inkscape:label="dalsi cipek" id="layer2"/>
      <g transform="translate(-2.483115,-3.846563)" inkscape:label="Lower strings" id="layer7"/>
      <g transform="translate(-2.483115,-3.846563)" style="display:inline" inkscape:label="puppet" id="layer4"/>
      <g transform="translate(-2.483115,-3.846563)" inkscape:label="Strings" id="layer5"/>
      <g transform="translate(-2.483115,-3.846563)" style="display:inline" inkscape:label="Control" id="layer6">
        <g transform="translate(-8.5045707,-3.331191)" id="g1934" style="display:inline">
          <path transform="matrix(1.77551,0,0,0.959183,-24.25322,18.77153)" sodipodi:type="arc" style="color:#000000;fill:url(#radialGradient13779);fill-opacity:1;fill-rule:evenodd;stroke:none;stroke-width:1px;marker:none;visibility:visible;display:inline;overflow:visible" id="path4306" sodipodi:cx="31.112698" sodipodi:cy="19.008621" sodipodi:rx="8.6620579" sodipodi:ry="8.6620579" d="m 39.774755,19.008621 c 0,4.783923 -3.878135,8.662058 -8.662057,8.662058 -4.783923,0 -8.662058,-3.878135 -8.662058,-8.662058 0,-4.783922 3.878135,-8.662058 8.662058,-8.662058 4.783922,0 8.662057,3.878136 8.662057,8.662058 z"/>
          <path inkscape:connector-curvature="0" style="color:#000000;fill:#3263a1;fill-opacity:1;fill-rule:evenodd;stroke:#204a87;stroke-width:1px;stroke-linecap:round;stroke-linejoin:round;stroke-miterlimit:4;stroke-opacity:1;stroke-dasharray:none;stroke-dashoffset:0;marker:none;visibility:visible;display:inline;overflow:visible" d="m 25.986174,41.636039 10.606602,0 c 3.005204,0 5.980484,-1.101932 7.071067,-4.242641 1.035639,-2.982476 0.176777,-8.662058 -6.540737,-13.258252 l -12.551146,0 c -6.717514,4.24264 -7.556991,10.044831 -6.010407,13.435028 1.575595,3.45379 4.24264,4.065865 7.424621,4.065865 z" id="path4308" sodipodi:nodetypes="cczcczc"/>
          <path inkscape:connector-curvature="0" style="color:#000000;fill:url(#linearGradient13783);fill-opacity:1;fill-rule:evenodd;stroke:none;stroke-width:1px;marker:none;visibility:visible;display:inline;overflow:visible" d="m 26.693281,25.726136 c 3.18198,2.828427 4.596194,13.081476 4.596194,13.081476 0,0 1.414213,-10.253048 3.889087,-13.258252 l -8.485281,0.176776 z" id="path4310" sodipodi:nodetypes="cccc"/>
          <path inkscape:connector-curvature="0" sodipodi:nodetypes="cccc" id="path4312" d="m 28.972721,26.786797 c 0,0 -2.151323,1.660335 -1.965991,3.660533 -2.041226,-1.800794 -2.099873,-5.251524 -2.099873,-5.251524 l 4.065864,1.590991 z" style="color:#000000;fill:#729fcf;fill-opacity:1;fill-rule:evenodd;stroke:none;stroke-width:1px;marker:none;visibility:visible;display:inline;overflow:visible"/>
          <path inkscape:connector-curvature="0" sodipodi:nodetypes="cczcczc" id="path4314" d="m 25.914862,40.593933 10.493447,-0.0221 c 2.639723,0 5.315661,-0.749169 6.273612,-3.507917 0.909689,-2.61976 0.03028,-7.827364 -5.870279,-11.864587 L 25.099417,24.956264 c -5.900557,3.726667 -7.04262,8.823219 -5.662029,12.044182 1.380592,3.220963 3.395211,3.57139 6.477474,3.593487 z" style="opacity:0.21518986;color:#000000;fill:none;stroke:#ffffff;stroke-width:0.99999976px;stroke-linecap:round;stroke-linejoin:round;stroke-miterlimit:4;stroke-opacity:1;stroke-dasharray:none;stroke-dashoffset:0;marker:none;visibility:visible;display:inline;overflow:visible"/>
          <path inkscape:connector-curvature="0" style="color:#000000;fill:#729fcf;fill-opacity:1;fill-rule:evenodd;stroke:none;stroke-width:1px;marker:none;visibility:visible;display:inline;overflow:visible" d="m 33.410795,26.786797 c 0,0 2.151323,1.660335 1.965991,3.660533 2.041226,-1.800794 2.099873,-5.251524 2.099873,-5.251524 l -4.065864,1.590991 z" id="path4316" sodipodi:nodetypes="cccc"/>
          <path d="m 39.774755,19.008621 c 0,4.783923 -3.878135,8.662058 -8.662057,8.662058 -4.783923,0 -8.662058,-3.878135 -8.662058,-8.662058 0,-4.783922 3.878135,-8.662058 8.662058,-8.662058 4.783922,0 8.662057,3.878136 8.662057,8.662058 z" sodipodi:ry="8.6620579" sodipodi:rx="8.6620579" sodipodi:cy="19.008621" sodipodi:cx="31.112698" id="path4318" style="color:#000000;fill:url(#radialGradient13785);fill-opacity:1;fill-rule:evenodd;stroke:none;stroke-width:1px;marker:none;visibility:visible;display:inline;overflow:visible" sodipodi:type="arc" transform="translate(-0.125,3.5)"/>
          <path sodipodi:type="arc" style="color:#000000;fill:url(#radialGradient13787);fill-opacity:1;fill-rule:evenodd;stroke:#c17d11;stroke-width:1px;stroke-linecap:round;stroke-linejoin:round;stroke-miterlimit:4;stroke-opacity:1;stroke-dasharray:none;stroke-dashoffset:0;marker:none;visibility:visible;display:inline;overflow:visible" id="path4320" sodipodi:cx="31.112698" sodipodi:cy="19.008621" sodipodi:rx="8.6620579" sodipodi:ry="8.6620579" d="m 39.774755,19.008621 c 0,4.783923 -3.878135,8.662058 -8.662057,8.662058 -4.783923,0 -8.662058,-3.878135 -8.662058,-8.662058 0,-4.783922 3.878135,-8.662058 8.662058,-8.662058 4.783922,0 8.662057,3.878136 8.662057,8.662058 z"/>
          <path d="m 39.774755,19.008621 c 0,4.783923 -3.878135,8.662058 -8.662057,8.662058 -4.783923,0 -8.662058,-3.878135 -8.662058,-8.662058 0,-4.783922 3.878135,-8.662058 8.662058,-8.662058 4.783922,0 8.662057,3.878136 8.662057,8.662058 z" sodipodi:ry="8.6620579" sodipodi:rx="8.6620579" sodipodi:cy="19.008621" sodipodi:cx="31.112698" id="path4322" style="opacity:0.19620254;color:#000000;fill:none;stroke:#ffffff;stroke-width:1.14012825px;stroke-linecap:round;stroke-linejoin:round;stroke-miterlimit:4;stroke-opacity:1;stroke-dasharray:none;stroke-dashoffset:0;marker:none;visibility:visible;display:inline;overflow:visible" sodipodi:type="arc" transform="matrix(0.877095,0,0,0.877095,3.823927,2.336267)"/>
          <path inkscape:connector-curvature="0" style="opacity:0.22784807;color:#000000;fill:url(#linearGradient13789);fill-opacity:1;fill-rule:evenodd;stroke:none;stroke-width:1px;marker:none;visibility:visible;display:inline;overflow:visible" d="m 21.85179,40.775197 c -1.247607,-0.544969 -1.805994,-1.858277 -1.805994,-1.858277 0.841281,-4.069136 3.719925,-7.046216 3.719925,-7.046216 0,0 -2.279321,6.411514 -1.913931,8.904493 z" id="path4354" sodipodi:nodetypes="cccc"/>
          <path inkscape:connector-curvature="0" sodipodi:nodetypes="cccc" id="path4364" d="m 41.194997,39.854346 c 1.340626,-0.862228 1.788755,-2.142946 1.788755,-2.142946 -0.95912,-4.042983 -3.960524,-6.702196 -3.960524,-6.702196 0,0 2.464593,6.342602 2.171769,8.845142 z" style="opacity:0.22784807;color:#000000;fill:url(#linearGradient13791);fill-opacity:1;fill-rule:evenodd;stroke:none;stroke-width:1px;marker:none;visibility:visible;display:inline;overflow:visible"/>
        </g>
      </g>
    </g>
  </g>
</svg>