<?xml version="1.0" encoding="UTF-8" standalone="no"?>
<svg
   width="155.5"
   height="156"
   viewBox="0 0 155.5 156"
   version="1.1"
   preserveAspectRatio="xMidYMid"
   id="svg52"
   sodipodi:docname="postman.svg"
   inkscape:version="1.1.2 (0a00cf5339, 2022-02-04)"
   xmlns:inkscape="http://www.inkscape.org/namespaces/inkscape"
   xmlns:sodipodi="http://sodipodi.sourceforge.net/DTD/sodipodi-0.dtd"
   xmlns="http://www.w3.org/2000/svg"
   xmlns:svg="http://www.w3.org/2000/svg">
  <defs
     id="defs56" />
  <sodipodi:namedview
     id="namedview54"
     pagecolor="#ffffff"
     bordercolor="#666666"
     borderopacity="1.0"
     inkscape:pageshadow="2"
     inkscape:pageopacity="0.0"
     inkscape:pagecheckerboard="0"
     showgrid="false"
     inkscape:zoom="21.140625"
     inkscape:cx="146.99187"
     inkscape:cy="76.724316"
     inkscape:window-width="1920"
     inkscape:window-height="979"
     inkscape:window-x="0"
     inkscape:window-y="36"
     inkscape:window-maximized="1"
     inkscape:current-layer="g50" />
  <g
     id="g50">
    <g
       id="g48">
      <path
         d="M 154.72821,87.545586 C 160.16496,44.983643 130.10753,6.0720853 87.623254,0.6353408 45.138978,-4.8014038 6.0720853,25.256027 0.6353408,67.740302 -4.8014038,110.22458 25.256027,149.2138 67.740302,154.72821 110.30225,160.16496 149.2138,130.10753 154.72821,87.545586 Z"
         fill="#ff6c37"
         id="path4" />
      <g
         transform="translate(30.454428,27.430725)"
         id="g46">
        <path
           d="M 75.265418,22.445988 42.489615,55.221791 33.24715,45.979325 C 65.479278,13.747197 68.663657,16.543237 75.265418,22.445988 Z"
           fill="#ffffff"
           id="path6" />
        <path
           d="m 42.489615,55.998469 c -0.233003,0 -0.388339,-0.07767 -0.543674,-0.233003 L 32.625807,46.523 c -0.310671,-0.310671 -0.310671,-0.776678 0,-1.087349 32.775803,-32.775803 36.193186,-29.669092 43.105618,-23.455669 0.155335,0.155335 0.233003,0.310671 0.233003,0.543674 0,0.233003 -0.07767,0.388339 -0.233003,0.543674 L 42.955622,55.765466 c -0.07767,0.155335 -0.310671,0.233003 -0.466007,0.233003 z M 34.334499,45.979325 42.489615,54.134442 74.100402,22.523656 C 68.352986,17.397583 64.469597,15.844227 34.334499,45.979325 Z"
           fill="#ff6c37"
           id="path8" />
        <path
           d="M 51.887417,64.619592 42.955622,55.687798 75.731425,22.911995 c 8.776459,8.854127 -4.349396,23.222666 -23.844008,41.707597 z"
           fill="#ffffff"
           id="path10" />
        <path
           d="m 51.887417,65.39627 c -0.233004,0 -0.388339,-0.07767 -0.543675,-0.233003 l -8.931794,-8.931795 c -0.155336,-0.155335 -0.155336,-0.310671 -0.155336,-0.543674 0,-0.233004 0.07767,-0.388339 0.233003,-0.543675 L 75.265418,22.36832 c 0.310671,-0.310671 0.776678,-0.310671 1.087349,0 2.019362,1.864027 3.106711,4.504732 3.029044,7.223104 -0.155336,8.621123 -9.941476,19.57228 -26.873052,35.571843 -0.233003,0.155335 -0.466007,0.233003 -0.621342,0.233003 z m -7.844446,-9.708472 c 4.970738,5.048405 7.067768,7.067768 7.844446,7.844445 13.048187,-12.426844 25.708035,-25.16436 25.785702,-33.940819 0.07767,-2.019362 -0.69901,-4.038725 -2.019362,-5.59208 z"
           fill="#ff6c37"
           id="path12" />
        <path
           d="m 33.402485,46.212329 6.601761,6.601761 c 0.155336,0.155335 0.155336,0.310671 0,0.466007 -0.07767,0.07767 -0.07767,0.07767 -0.155335,0.07767 L 26.179382,56.30914 c -0.69901,0.07767 -1.320353,-0.388339 -1.475688,-1.087349 -0.07767,-0.388339 0.07767,-0.776678 0.310671,-1.009681 l 7.922114,-7.922114 c 0.155335,-0.155335 0.388339,-0.233003 0.466006,-0.07767 z"
           fill="#ffffff"
           id="path14" />
        <path
           d="m 25.946378,57.085818 c -1.165016,0 -2.019362,-0.932014 -2.019362,-2.09703 0,-0.543675 0.233003,-1.087349 0.621342,-1.475688 l 7.922114,-7.922114 c 0.466007,-0.388338 1.087349,-0.388338 1.553356,0 l 6.601761,6.601762 c 0.466006,0.388339 0.466006,1.087349 0,1.553355 -0.155336,0.155336 -0.310671,0.233004 -0.543675,0.310671 L 26.412385,57.00815 c -0.155336,0 -0.310671,0.07767 -0.466007,0.07767 z m 7.223104,-10.019144 -7.611443,7.611443 c -0.155335,0.155335 -0.233003,0.388339 -0.07767,0.621342 0.07767,0.233003 0.310671,0.310671 0.543674,0.233003 l 12.815184,-2.79604 z"
           fill="#ff6c37"
           id="path16" />
        <path
           d="M 92.585333,4.2717279 C 87.614595,-0.54367445 79.614814,-0.3883389 74.799412,4.6600668 69.984009,9.7084724 70.139345,17.630586 75.187751,22.445988 c 4.116392,3.961057 10.329814,4.660067 15.222884,1.708691 l -8.854127,-8.854126 z"
           fill="#ffffff"
           id="path18" />
        <path
           d="m 83.886542,26.717716 c -7.378439,0 -13.358858,-5.980419 -13.358858,-13.358858 C 70.527684,5.980419 76.508103,0 83.886542,0 c 3.417382,0 6.757097,1.3203522 9.242466,3.7280534 0.155335,0.1553356 0.233003,0.3106711 0.233003,0.5436745 0,0.2330033 -0.07767,0.3883389 -0.233003,0.5436744 l -10.485151,10.4851507 8.232785,8.232784 c 0.310671,0.310671 0.310671,0.776678 0,1.087349 -0.07767,0.07767 -0.07767,0.07767 -0.155336,0.155336 -2.019362,1.242684 -4.427063,1.941694 -6.834764,1.941694 z m 0,-25.0866926 c -6.524094,0 -11.805503,5.281409 -11.727835,11.8055026 0,6.524093 5.281409,11.805502 11.805503,11.727834 1.786358,0 3.572718,-0.388338 5.203741,-1.242684 l -8.155117,-8.077449 c -0.155336,-0.155336 -0.233003,-0.310671 -0.233003,-0.543674 0,-0.233004 0.07767,-0.388339 0.233003,-0.543675 L 91.420316,4.3493956 C 89.323286,2.5630367 86.682582,1.6310234 83.886542,1.6310234 Z"
           fill="#ff6c37"
           id="path20" />
        <path
           d="M 92.818336,4.5047312 92.663001,4.3493956 81.556508,15.300553 l 8.776459,8.776459 c 0.854346,-0.543675 1.708692,-1.165017 2.407702,-1.864027 4.970737,-4.89307 4.970737,-12.8151837 0.07767,-17.7082538 z"
           fill="#ffffff"
           id="path22" />
        <path
           d="m 90.410635,24.931357 c -0.233003,0 -0.388339,-0.07767 -0.543674,-0.233003 l -8.854127,-8.854127 c -0.155336,-0.155336 -0.233003,-0.310671 -0.233003,-0.543674 0,-0.233004 0.07767,-0.388339 0.233003,-0.543675 L 92.041659,3.7280534 c 0.310671,-0.3106711 0.776677,-0.3106711 1.087349,0 l 0.233003,0.1553356 c 5.203741,5.2037412 5.203741,13.591861 0.07767,18.87327 -0.776678,0.776678 -1.631024,1.475688 -2.563037,2.019363 -0.233003,0.07767 -0.388339,0.155335 -0.466007,0.155335 z m -7.766778,-9.630804 7.844446,7.844445 c 0.621342,-0.388339 1.242684,-0.932013 1.708691,-1.39802 4.427064,-4.427063 4.660067,-11.650167 0.388339,-16.3102335 z"
           fill="#ff6c37"
           id="path24" />
        <path
           d="m 76.585771,23.844008 c -1.864027,-1.864026 -4.893071,-1.864026 -6.757097,0 l -29.280753,29.280753 4.89307,4.89307 30.989444,-27.183723 c 2.019362,-1.708691 2.174698,-4.737734 0.466007,-6.757096 -0.155336,-0.07767 -0.233004,-0.155336 -0.310671,-0.233004 z"
           fill="#ffffff"
           id="path26" />
        <path
           d="m 45.363323,58.794509 c -0.233003,0 -0.388339,-0.07767 -0.543674,-0.233003 l -4.89307,-4.893071 c -0.310671,-0.310671 -0.310671,-0.776677 0,-1.087348 L 69.207331,23.300334 c 2.174698,-2.174698 5.669748,-2.174698 7.844446,0 2.174698,2.174698 2.174698,5.669748 0,7.844445 -0.07767,0.07767 -0.155335,0.155336 -0.233003,0.233004 L 45.82933,58.561506 c -0.07767,0.155335 -0.233003,0.233003 -0.466007,0.233003 z M 41.63527,53.124761 45.440991,56.930482 75.88676,30.212766 c 1.708692,-1.39802 1.864027,-3.961057 0.466007,-5.669748 -1.39802,-1.708691 -3.961056,-1.864026 -5.669748,-0.466006 -0.07767,0.07767 -0.155335,0.155335 -0.310671,0.233003 z"
           fill="#ff6c37"
           id="path28" />
        <path
           d="m 18.101933,86.444238 c -0.310671,0.155336 -0.466007,0.466007 -0.388339,0.776678 l 1.320352,5.59208 c 0.310671,0.776678 -0.155336,1.708691 -1.009681,1.941695 -0.621342,0.233003 -1.320352,0 -1.708691,-0.466007 L 7.7721181,85.822896 35.654851,57.940163 l 9.630804,0.155336 6.524094,6.524093 C 50.256393,65.939945 40.858592,75.027075 18.101933,86.444238 Z"
           fill="#ffffff"
           id="path30" />
        <path
           d="m 17.480591,95.531369 c -0.621343,0 -1.242685,-0.233004 -1.631024,-0.69901 L 7.3837792,86.366571 C 7.2284436,86.211235 7.1507758,86.055899 7.1507758,85.822896 c 0,-0.233003 0.077668,-0.388339 0.2330034,-0.543674 L 35.266512,57.396489 c 0.155335,-0.155336 0.388339,-0.233003 0.543674,-0.233003 l 9.630805,0.155335 c 0.233003,0 0.388339,0.07767 0.543674,0.233004 l 6.524094,6.524093 c 0.155335,0.155335 0.233003,0.388339 0.233003,0.621342 0,0.233003 -0.07767,0.388339 -0.310671,0.543675 l -0.543674,0.466006 c -8.232785,7.223104 -19.416945,14.446207 -33.319478,21.35864 l 1.320353,5.514412 c 0.233003,1.009681 -0.233004,2.09703 -1.165017,2.640704 -0.466007,0.233004 -0.854346,0.310672 -1.242684,0.310672 z M 8.9371348,85.822896 16.936916,93.74501 c 0.233003,0.388339 0.69901,0.543674 1.087349,0.310671 0.388339,-0.233004 0.543674,-0.69901 0.310671,-1.087349 l -1.320352,-5.59208 c -0.155336,-0.69901 0.155335,-1.320353 0.776678,-1.631024 C 31.538458,78.832796 42.644951,71.68736 50.800068,64.619592 l -5.747416,-5.747415 -8.931795,-0.155336 z"
           fill="#ff6c37"
           id="path32" />
        <path
           d="m 1.1703568,92.502325 6.679429,-6.679429 9.9414762,9.941476 -15.8442274,-1.087349 c -0.69901,-0.07767 -1.16501668,-0.69901 -1.0873489,-1.39802 0,-0.310671 0.0776678,-0.621342 0.3106711,-0.776678 z"
           fill="#ffffff"
           id="path34" />
        <path
           d="M 17.791262,96.463382 1.8693668,95.376033 C 0.70435014,95.298365 -0.07232765,94.288684 0.00534013,93.123667 0.08300791,92.657661 0.23834347,92.191654 0.62668236,91.880983 L 7.3061114,85.201554 c 0.3106711,-0.310671 0.7766778,-0.310671 1.0873489,0 l 9.9414757,9.941476 c 0.233003,0.233003 0.310671,0.543674 0.155336,0.854345 -0.155336,0.310671 -0.388339,0.466007 -0.69901,0.466007 z M 7.8497858,86.910245 1.7140313,93.046 c -0.2330034,0.155335 -0.2330034,0.543674 0,0.69901 0.077668,0.07767 0.1553355,0.155335 0.3106711,0.155335 l 13.7471966,0.932014 z"
           fill="#ff6c37"
           id="path36" />
        <path
           d="m 32.936479,61.512881 c -0.466007,0 -0.776678,-0.388339 -0.776678,-0.776678 0,-0.233003 0.07767,-0.388338 0.233003,-0.543674 l 7.533775,-7.533775 c 0.310671,-0.310671 0.776678,-0.310671 1.087349,0 l 4.89307,4.893071 c 0.233003,0.233003 0.310671,0.466006 0.233003,0.776677 -0.07767,0.233004 -0.310671,0.466007 -0.621342,0.543675 l -12.426845,2.640704 c -0.07767,0 -0.155335,0 -0.155335,0 z m 7.533774,-7.223103 -5.126073,5.126073 8.38812,-1.786359 z"
           fill="#ff6c37"
           id="path38" />
        <path
           d="M 45.285655,58.095499 36.7422,59.959526 c -0.621343,0.155335 -1.242685,-0.233004 -1.39802,-0.854346 -0.07767,-0.388339 0,-0.776678 0.310671,-1.087349 l 4.737734,-4.737734 z"
           fill="#ffffff"
           id="path40" />
        <path
           d="m 36.586864,60.736203 c -1.087349,0 -1.941694,-0.854345 -1.941694,-1.941694 0,-0.543674 0.233003,-1.009681 0.543674,-1.39802 l 4.737735,-4.737735 c 0.310671,-0.310671 0.776678,-0.310671 1.087349,0 l 4.89307,4.893071 c 0.233003,0.233003 0.310671,0.466006 0.233003,0.776677 -0.07767,0.233004 -0.310671,0.466007 -0.621342,0.543675 l -8.543456,1.864026 c -0.155336,0 -0.310671,0 -0.388339,0 z m 3.883389,-6.446425 -4.19406,4.19406 c -0.155336,0.155335 -0.155336,0.310671 -0.07767,0.466006 0.07767,0.155336 0.233004,0.233004 0.466007,0.233004 l 7.145436,-1.553356 z"
           fill="#ff6c37"
           id="path42" />
        <path
           d="m 92.896004,11.960838 c -0.155335,-0.466007 -0.69901,-0.69901 -1.165017,-0.543674 -0.466006,0.155335 -0.69901,0.69901 -0.543674,1.165016 0,0.07767 0.07767,0.155336 0.07767,0.233004 0.466006,0.932013 0.310671,2.09703 -0.310671,2.951375 -0.310671,0.388339 -0.233004,0.932014 0.07767,1.242685 0.388339,0.310671 0.932014,0.233003 1.242685,-0.155336 1.165017,-1.475688 1.39802,-3.339714 0.621342,-4.89307 z"
           fill="#ff6c37"
           id="path44" />
      </g>
    </g>
  </g>
</svg>
