<?xml version="1.0" encoding="UTF-8" standalone="no"?>
<svg
   width="32px"
   height="32px"
   viewBox="0 0 32 32"
   version="1.1"
   id="svg4"
   sodipodi:docname="scrum.svg"
   inkscape:version="1.1.1 (3bf5ae0d25, 2021-09-20)"
   xmlns:inkscape="http://www.inkscape.org/namespaces/inkscape"
   xmlns:sodipodi="http://sodipodi.sourceforge.net/DTD/sodipodi-0.dtd"
   xmlns="http://www.w3.org/2000/svg"
   xmlns:svg="http://www.w3.org/2000/svg">
  <defs
     id="defs8" />
  <sodipodi:namedview
     id="namedview6"
     pagecolor="#ffffff"
     bordercolor="#666666"
     borderopacity="1.0"
     inkscape:pageshadow="2"
     inkscape:pageopacity="0.0"
     inkscape:pagecheckerboard="0"
     showgrid="false"
     inkscape:zoom="19.6875"
     inkscape:cx="16"
     inkscape:cy="16"
     inkscape:window-width="1920"
     inkscape:window-height="985"
     inkscape:window-x="0"
     inkscape:window-y="30"
     inkscape:window-maximized="1"
     inkscape:current-layer="svg4" />
  <path
     style="fill:#99ccff;fill-opacity:1;stroke:none;stroke-width:0.0516009"
     d="M 0.07698967,16.035117 V -0.00595848 H 16.079999 32.083009 V 16.035117 32.076191 H 16.079999 0.07698967 Z"
     id="path911" />
  <path
     fill="#444444"
     d="m 22.907558,22.020722 c 0.07753,0.0053 0.161128,0.01614 0.244721,0.01614 1.183626,0.0013 2.368464,-0.0067 3.55209,0.0067 0.259259,0.0027 0.336795,-0.0955 0.323469,-0.37121 -0.01697,-0.359105 -0.0036,-0.719554 -0.0036,-1.163392 1.343543,1.097489 2.64226,2.157319 3.9749,3.246738 -1.322948,1.081349 -2.621665,2.142524 -3.9749,3.249427 0,-0.418282 0,-0.763938 0,-1.109593 0,-0.446527 0,-0.447873 -0.391312,-0.447873 -7.56818,0 -15.137573,0 -22.7057528,0 -0.3658702,0 -0.3658702,0 -0.3658702,-0.408867 0,-0.88633 0.010903,-1.77266 -0.00606,-2.657645 -0.00606,-0.287822 0.077536,-0.35238 0.325891,-0.351035 4.0693962,0.0081 8.138794,0.0148 12.20819,0.0027 2.086186,-0.0067 3.732602,-0.965682 4.821731,-2.961605 1.965038,-3.604498 -0.08359,-8.325314 -3.848905,-8.933236 -2.907577,-0.4693921 -5.610412,1.697342 -6.103488,4.980393 -0.05209,0.341621 -0.05573,0.692655 -0.08601,1.104213 0.476116,-0.07128 0.907407,-0.137186 1.395637,-0.209814 -0.764451,1.640854 -1.502248,3.225218 -2.250949,4.831103 -1.1472816,-1.312682 -2.2776029,-2.60519 -3.382482,-3.869455 0.2774312,-0.05111 0.6457243,-0.110285 1.0103829,-0.19502 0.069055,-0.01613 0.1708202,-0.139876 0.1683972,-0.211159 -0.020595,-0.859429 0.03271,-1.709446 0.1841466,-2.552736 0.00484,-0.02555 -0.00606,-0.05515 -0.013326,-0.104911 C 7.2454102,13.770728 6.5597066,13.474836 5.938212,12.998719 4.4190031,11.831292 3.6242653,9.6591796 3.9974044,7.6793959 4.4032537,5.5220773 5.869157,3.9094681 7.7639281,3.5113595 8.9923794,3.2544718 10.13118,3.499255 11.188812,4.2201543 c 0.186569,0.1277714 0.300449,0.1466008 0.42281,-0.075318 0.07148,-0.1304612 0.1793,-0.2353683 0.302872,-0.3940737 0.153859,0.6886204 0.298027,1.332857 0.440983,1.9770937 0.04847,0.2165389 0.08602,0.4371126 0.142955,0.6509615 0.06178,0.2313335 -0.0012,0.3348955 -0.221702,0.3187559 -0.637244,-0.048419 -1.2757,-0.091457 -1.912943,-0.138531 C 10.206293,6.5469383 10.05001,6.5281084 9.8476914,6.50659 10.005185,6.2860162 10.148141,6.0883068 10.304424,5.8717679 9.9603598,5.5812562 9.5811641,5.4360003 9.1862175,5.3647174 7.2769089,5.0177173 5.5941487,6.6464659 5.6329164,8.7916799 5.6619923,10.437913 6.9122503,11.909302 8.3890571,12.049178 8.5804726,12.066659 8.6471045,11.959067 8.7210055,11.80036 9.767733,9.5704128 11.343882,7.9941176 13.48822,7.1736909 18.449273,5.274605 23.628395,8.6773582 24.584261,14.246845 c 0.47127,2.742377 -0.06542,5.246696 -1.564035,7.491436 -0.04119,0.06187 -0.07875,0.127772 -0.115091,0.193675 -0.0073,0.01211 0.0024,0.03631 0.0085,0.08743 z"
     id="path2"
     style="stroke-width:1.27649" />
</svg>
