<?xml version="1.0" encoding="UTF-8" standalone="no"?>
<!-- Generator: Adobe Illustrator 18.0.0, SVG Export Plug-In . SVG Version: 6.00 Build 0)  -->

<svg
   version="1.1"
   id="Capa_1"
   x="0px"
   y="0px"
   viewBox="0 0 380 380"
   style="enable-background:new 0 0 380 380;"
   xml:space="preserve"
   sodipodi:docname="sql.svg"
   inkscape:version="1.1.1 (3bf5ae0d25, 2021-09-20)"
   xmlns:inkscape="http://www.inkscape.org/namespaces/inkscape"
   xmlns:sodipodi="http://sodipodi.sourceforge.net/DTD/sodipodi-0.dtd"
   xmlns="http://www.w3.org/2000/svg"
   xmlns:svg="http://www.w3.org/2000/svg"><defs
   id="defs45" /><sodipodi:namedview
   id="namedview43"
   pagecolor="#ffffff"
   bordercolor="#666666"
   borderopacity="1.0"
   inkscape:pageshadow="2"
   inkscape:pageopacity="0.0"
   inkscape:pagecheckerboard="0"
   showgrid="false"
   inkscape:zoom="1.6578947"
   inkscape:cx="190"
   inkscape:cy="188.79365"
   inkscape:window-width="1920"
   inkscape:window-height="985"
   inkscape:window-x="0"
   inkscape:window-y="30"
   inkscape:window-maximized="1"
   inkscape:current-layer="Capa_1" />
<g
   id="g10">
	<path
   d="M215.77,216.23h-23.969v-56.906c0-3.314-2.686-6-6-6c-3.313,0-6,2.686-6,6v62.906c0,3.313,2.687,6,6,6h29.969   c3.313,0,6-2.687,6-6C221.77,218.917,219.083,216.23,215.77,216.23z"
   id="path2" />
	<path
   d="M72.102,185.826c-10.658-3.229-14.999-5.188-14.999-11.676c0-5.867,7.579-7.949,14.07-7.949   c4.704,0,10.122,1.458,13.482,3.629c2.783,1.797,6.497,0.999,8.296-1.784c1.798-2.783,0.999-6.497-1.784-8.295   c-5.299-3.423-12.96-5.55-19.994-5.55c-15.594,0-26.07,8.017-26.07,19.949c0,16.037,13.595,20.154,23.521,23.16   c10.963,3.32,14.144,5.094,14.099,10.498c0,5.536-7.288,7.5-13.529,7.5c-5.879,0-12.265-2.573-15.891-6.404   c-2.277-2.407-6.077-2.511-8.481-0.233c-2.407,2.278-2.512,6.075-0.233,8.482c5.929,6.264,15.357,10.155,24.605,10.155   c15.27,0,25.529-7.836,25.529-19.45C94.848,192.715,81.701,188.733,72.102,185.826z"
   id="path4" />
	<path
   d="M133.042,154.148c-19.883,0-36.059,15.8-36.059,35.221c0,19.467,16.176,35.305,36.059,35.305   c3.588,0,7.052-0.522,10.325-1.482l3.266,3.851c1.187,1.399,2.877,2.119,4.579,2.119c1.371,0,2.75-0.468,3.878-1.424   c2.527-2.144,2.839-5.93,0.695-8.457l-1.308-1.542c8.865-6.438,14.623-16.757,14.623-28.369   C169.101,169.948,152.925,154.148,133.042,154.148z M146.686,208.55l-4.873-5.746c-2.142-2.526-5.928-2.837-8.457-0.695   c-2.527,2.144-2.839,5.93-0.695,8.457l1.754,2.068c-0.455,0.025-0.911,0.04-1.372,0.04c-13.266,0-24.059-10.455-24.059-23.305   c0-12.804,10.793-23.221,24.059-23.221c13.266,0,24.059,10.417,24.059,23.221C157.101,197.314,152.971,204.341,146.686,208.55z"
   id="path6" />
	<path
   d="M368.317,46.487H11.684C5.24,46.487,0,51.73,0,58.173v263.656c0,6.442,5.24,11.684,11.684,11.684h356.634   c6.442,0,11.683-5.242,11.683-11.684V58.173C380,51.73,374.76,46.487,368.317,46.487z M320.868,79.771   c6.844,0,12.387,5.547,12.387,12.387c0,6.842-5.543,12.387-12.387,12.387c-6.839,0-12.385-5.545-12.385-12.387   C308.483,85.318,314.029,79.771,320.868,79.771z M283.715,79.771c6.839,0,12.386,5.547,12.386,12.387   c0,6.842-5.547,12.387-12.386,12.387c-6.839,0-12.387-5.545-12.387-12.387C271.328,85.318,276.876,79.771,283.715,79.771z    M246.561,79.771c6.839,0,12.381,5.547,12.381,12.387c0,6.842-5.542,12.387-12.381,12.387c-6.844,0-12.387-5.545-12.387-12.387   C234.175,85.318,239.718,79.771,246.561,79.771z M21.27,314.01V141.424H358.73v66.774c-1.537-2.202-3.678-4.02-6.327-5.143   l-20.614-8.726c-1.834-0.778-3.771-1.172-5.754-1.172c-5.956,0-11.304,3.54-13.623,9.02l-1.252,2.959   c-9.228,0.129-18.383,2.255-26.729,6.193l-2.426-2.107c-1.175-1.018-2.498-1.841-3.932-2.447c-1.841-0.779-3.783-1.174-5.772-1.174   c-4.276,0-8.341,1.858-11.154,5.099l-14.671,16.915c-2.584,2.986-3.855,6.794-3.581,10.735c0.285,3.941,2.085,7.535,5.065,10.115   l2.417,2.098c-2.755,8.849-3.562,18.179-2.365,27.344l-2.748,1.654c-6.982,4.2-9.242,13.302-5.039,20.293L249.344,315H22.26   C21.714,315,21.27,314.556,21.27,314.01z M280.949,258.768c5.162-12.192,17.054-20.07,30.295-20.07   c4.411,0,8.722,0.878,12.813,2.61c16.697,7.072,24.529,26.408,17.461,43.105c-5.166,12.191-17.058,20.068-30.294,20.068   c0,0-0.001,0-0.002,0c-4.41,0-8.721-0.878-12.811-2.611c-8.089-3.424-14.36-9.793-17.658-17.935   C277.455,275.794,277.524,266.856,280.949,258.768z"
   id="path8" />
</g>
<g
   id="g12">
</g>
<g
   id="g14">
</g>
<g
   id="g16">
</g>
<g
   id="g18">
</g>
<g
   id="g20">
</g>
<g
   id="g22">
</g>
<g
   id="g24">
</g>
<g
   id="g26">
</g>
<g
   id="g28">
</g>
<g
   id="g30">
</g>
<g
   id="g32">
</g>
<g
   id="g34">
</g>
<g
   id="g36">
</g>
<g
   id="g38">
</g>
<g
   id="g40">
</g>
<path
   style="fill:#00838f;stroke:none;stroke-width:0.603175;fill-opacity:1"
   d="M 8.3923133,332.67953 C 5.6535948,331.846 3.6142713,330.14293 1.9355971,327.28745 L 0.3015873,324.50794 V 190 55.492063 L 1.9549807,52.679477 C 2.8643471,51.132555 4.6286328,49.232555 5.8756155,48.457255 L 8.1428571,47.047619 H 190 371.85714 l 2.26725,1.409636 c 1.24697,0.7753 3.01126,2.6753 3.92063,4.222222 l 1.65339,2.812586 V 190 324.50794 l -1.65339,2.81258 c -0.90937,1.54693 -2.67366,3.44693 -3.92063,4.22222 l -2.26725,1.40964 -180.95238,0.10098 C 91.380952,333.10891 9.2503503,332.94067 8.3923133,332.67953 Z M 249.54128,314.70635 c -0.1343,-0.24881 -2.43872,-4.12559 -5.12092,-8.61508 -2.6822,-4.48948 -5.19649,-9.43258 -5.5873,-10.98466 -1.38538,-5.50183 1.57697,-12.14141 6.83565,-15.32088 l 2.53764,-1.53429 0.0641,-9.44318 c 0.0503,-7.41382 0.32402,-10.40267 1.27359,-13.90798 l 1.20949,-4.4648 -2.05061,-1.80047 c -3.62048,-3.17882 -5.32486,-6.807 -5.30164,-11.2858 0.0136,-2.62646 0.38992,-4.6175 1.14,-6.03175 0.61582,-1.16111 5.02663,-6.63787 9.8018,-12.17057 6.99836,-8.10857 9.286,-10.36038 11.79589,-11.61111 5.35478,-2.6684 11.08175,-1.81878 16.05905,2.38243 l 2.02343,1.70792 2.80197,-1.09336 c 5.97323,-2.33083 12.70327,-4.03234 18.55506,-4.69114 l 6.10229,-0.687 0.74747,-2.06711 c 0.99934,-2.76363 4.49587,-6.54538 7.51474,-8.12775 1.72373,-0.90352 3.53064,-1.28276 6.07289,-1.27461 3.17764,0.0102 5.0795,0.63218 15.59289,5.09972 8.49476,3.60975 12.74473,5.76024 14.62698,7.4013 l 2.65315,2.31317 V 174.67031 140.84127 H 190 21.111111 V 228 315.15873 H 135.4483 c 62.88545,0 114.22729,-0.20357 114.09298,-0.45238 z m 72.13976,-11.66292 c 15.61251,-5.20989 24.91758,-20.8094 22.16105,-37.15195 -1.94754,-11.54633 -10.63502,-21.83974 -21.64276,-25.64356 -5.77179,-1.99449 -16.15068,-1.99449 -21.92247,0 -13.84899,4.78563 -22.94092,18.52976 -22.02297,33.29176 0.92554,14.884 11.3301,27.1933 25.74611,30.45938 5.00163,1.13316 12.66231,0.71912 17.68104,-0.95563 z M 253.75171,102.4659 c 4.62487,-3.722042 6.39248,-8.364206 5.06378,-13.298636 -1.61932,-6.013693 -6.26165,-9.561943 -12.41866,-9.491891 -5.29697,0.06026 -8.92155,2.410121 -11.45573,7.426878 -1.62756,3.221993 -1.04724,8.969944 1.23762,12.258355 2.63885,3.797874 6.17032,5.419014 11.23966,5.159604 3.4339,-0.17571 4.38063,-0.4828 6.33333,-2.05431 z m 35.02927,1.25134 c 4.72802,-1.97549 7.37775,-6.079464 7.37775,-11.42687 0,-4.322897 -1.03059,-6.70629 -4.09583,-9.472202 -9.4546,-8.531339 -23.9596,0.699908 -20.39057,12.976931 0.9548,3.284398 3.35568,6.102731 6.69275,7.856441 2.33241,1.22574 7.56061,1.25872 10.4159,0.0657 z m 38.19558,-0.47042 c 7.30227,-3.85658 8.68929,-14.293016 2.66902,-20.082653 -9.55133,-9.185419 -24.94308,0.540136 -20.73688,13.102968 2.44468,7.301645 11.11577,10.651325 18.06786,6.979685 z"
   id="path899" /><path
   style="fill:#00838f;stroke:none;stroke-width:0.603175;fill-opacity:1"
   d="m 181.93939,226.10823 -1.59018,-1.59019 v -33.4336 c 0,-21.7773 0.21652,-33.83817 0.62105,-34.59404 0.94603,-1.76767 4.00973,-3.12106 6.05054,-2.67282 0.96698,0.21238 2.30432,1.08049 2.97185,1.92912 1.17849,1.4982 1.2137,2.39688 1.2137,30.97501 v 29.43204 l 13.32038,0.19296 13.32037,0.19297 1.75899,1.96984 c 2.33679,2.61689 2.33541,5.08622 -0.004,7.42577 l -1.7631,1.76312 H 200.6842 183.52958 Z"
   id="path975" /><path
   style="fill:#00838f;stroke:none;stroke-width:0.603175;fill-opacity:1"
   d="m 146.36267,225.92333 c -3.07176,-2.90514 -3.21361,-2.96692 -5.54326,-2.41447 -3.84534,0.91188 -12.45899,0.72944 -16.65294,-0.35273 -12.03439,-3.10521 -22.08159,-12.8012 -25.606802,-24.71169 -1.424861,-4.81411 -1.424861,-13.28112 0,-18.09523 3.509312,-11.85675 13.577042,-21.60798 25.479782,-24.67878 4.73536,-1.22168 13.17326,-1.22608 17.86888,-0.009 18.00153,4.66467 29.79693,22.74394 26.14214,40.06906 -1.42706,6.76482 -4.6617,12.80166 -9.51966,17.7667 -2.26497,2.31488 -4.11811,4.31083 -4.11811,4.43547 0,0.12463 0.54286,0.91673 1.20635,1.76022 2.21156,2.81155 1.17296,6.80211 -2.22225,8.53844 -2.36066,1.20726 -3.82589,0.72656 -7.03413,-2.30766 z m -11.85473,-13.12107 c 0,-0.23098 -0.71021,-1.44479 -1.57824,-2.69736 -1.26675,-1.82792 -1.50042,-2.69224 -1.18392,-4.3793 0.50105,-2.67086 2.85291,-4.56687 5.66486,-4.56687 1.85999,0 2.62121,0.52144 5.87522,4.02455 l 3.73836,4.02455 3.12537,-3.12537 c 11.74881,-11.74881 8.51373,-30.76617 -6.43687,-37.83893 -8.91857,-4.21917 -21.2378,-2.13115 -28.13815,4.7692 -11.29173,11.29173 -8.00492,30.29204 6.46403,37.36717 3.80103,1.85865 12.46934,3.5426 12.46934,2.42236 z"
   id="path1051" /><path
   style="fill:#00838f;stroke:none;stroke-width:0.603175;fill-opacity:1"
   d="m 62.170421,226.15851 c -5.611231,-1.21688 -12.106963,-4.50981 -15.669118,-7.94327 -2.616111,-2.52159 -3.072732,-3.29599 -3.072732,-5.21114 0,-3.80564 3.972274,-6.66811 7.261639,-5.23282 0.816417,0.35624 2.776665,1.67589 4.356108,2.93255 4.207631,3.34777 8.182015,4.63085 14.318761,4.62266 5.656195,-0.008 8.783834,-0.84948 11.431297,-3.07717 2.172357,-1.82792 2.718703,-4.12253 1.710193,-7.18267 -1.070817,-3.24921 -3.254014,-4.5378 -13.321917,-7.86305 -9.980434,-3.29635 -14.615373,-5.57946 -18.005061,-8.86904 -5.639234,-5.47269 -7.335327,-14.7526 -3.957639,-21.65362 3.845788,-7.85741 12.047455,-11.94882 23.952651,-11.94882 8.279806,0 17.527036,2.83064 20.806202,6.36891 2.162474,2.33335 2.041673,5.23913 -0.31581,7.59661 -2.191939,2.19194 -3.715737,2.11448 -9.633249,-0.48971 -3.567903,-1.57017 -4.544699,-1.72569 -10.857143,-1.72857 -6.068004,-0.003 -7.297297,0.17449 -9.818041,1.41575 -3.524559,1.73555 -4.926617,4.09707 -4.466989,7.52385 0.659475,4.91675 3.631725,7.08786 14.28503,10.43462 9.597845,3.01519 13.922573,5.08817 17.398851,8.33982 3.962159,3.70614 5.599679,7.56126 5.621933,13.23541 0.03,7.64837 -3.284263,12.7845 -10.527403,16.31438 -6.67053,3.25082 -13.899644,4.06303 -21.497563,2.41532 z"
   id="path1127" /><path
   style="fill:#00bed0;stroke:none;stroke-width:0.603175;fill-opacity:1"
   d="m 6.5640803,331.4444 c -1.2212246,-0.64537 -3.0139006,-2.44956 -4.0714287,-4.09757 l -1.88947698,-2.9445 V 190 55.597678 L 2.4645873,52.696917 C 3.4883643,51.101499 5.2168307,49.245593 6.3056236,48.572682 8.2830218,47.350583 8.4896652,47.349207 190.10481,47.349207 h 181.81956 l 2.06568,1.524013 c 1.13613,0.838206 2.81743,2.643337 3.73623,4.0114 l 1.67055,2.487389 V 190 324.628 l -1.67055,2.48739 c -0.9188,1.36806 -2.6001,3.17319 -3.73623,4.0114 l -2.06568,1.52401 -181.58917,-0.0267 C 12.732452,332.59807 8.6981314,332.57217 6.5640803,331.4444 Z M 249.71314,314.70636 c -6e-4,-0.24881 -1.38881,-2.75953 -3.08483,-5.57937 -1.69602,-2.81984 -4.16765,-7.28277 -5.49249,-9.91761 -2.0972,-4.1709 -2.3754,-5.19351 -2.15055,-7.9049 0.33982,-4.09783 2.79531,-8.21943 6.46933,-10.85895 l 2.88854,-2.07521 0.33431,-10.40738 c 0.2325,-7.23811 0.64884,-11.45756 1.36721,-13.856 l 1.03291,-3.44863 -2.97397,-3.25399 c -3.15506,-3.45214 -4.42105,-6.48661 -4.42105,-10.59684 0,-3.73546 1.10154,-5.72528 7.21309,-13.0297 7.50649,-8.97161 13.12294,-14.66556 15.82636,-16.04474 4.5627,-2.32772 11.39552,-1.0884 15.58078,2.82599 l 1.525,1.4263 6.05704,-2.05607 c 5.55896,-1.88699 11.80661,-3.27609 19.05265,-4.23614 2.61691,-0.34671 2.92236,-0.57279 4.12195,-3.05081 2.45663,-5.07473 7.93219,-8.7095 13.13359,-8.71831 4.11918,-0.007 27.98372,10.28943 30.52747,13.17113 0.63197,0.71593 1.3784,1.3017 1.65873,1.3017 0.28032,0 0.50969,-15.2 0.50969,-33.77778 V 140.84127 H 190 21.111112 v 87.15874 87.15873 H 135.4127 c 62.86588,0 114.30107,-0.20357 114.30044,-0.45238 z m 68.76306,-10.66788 c 11.0525,-2.38307 20.0875,-10.19937 23.9965,-20.75972 1.80695,-4.88154 2.44598,-13.74553 1.366,-18.94776 -2.43251,-11.71737 -13.25112,-22.74353 -24.63822,-25.11092 -4.10243,-0.85289 -11.82982,-0.85191 -15.92475,0.002 -5.73353,1.19566 -10.68087,3.98923 -15.27819,8.627 -7.39628,7.46137 -10.27312,14.93323 -9.77537,25.38899 0.33948,7.13124 1.70856,11.28428 5.73561,17.39885 7.29372,11.07458 20.86808,16.34473 34.51842,13.40152 z m 7.57368,-200.00707 c 0.68219,-0.25756 2.14582,-1.2302 3.2525,-2.16141 5.48878,-4.618503 5.61611,-14.02775 0.25781,-19.052287 -7.15724,-6.711436 -19.10363,-3.019819 -21.23362,6.561518 -2.2514,10.12744 7.76815,18.410779 17.72331,14.652179 z m -72.27118,-1.1545 c 6.82769,-5.098041 7.47728,-14.647396 1.37161,-20.163501 -8.26096,-7.463287 -21.25206,-1.866747 -21.19945,9.132688 0.0207,4.324219 0.79825,6.479924 3.28455,9.105953 2.86915,3.03039 4.87491,3.73739 10.06618,3.5482 3.68377,-0.13425 4.88653,-0.4357 6.47711,-1.62334 z m 37.37488,-0.14663 c 3.67985,-2.43527 5.19296,-6.01929 4.90966,-11.629317 -0.19678,-3.89687 -0.4572,-4.743682 -2.07255,-6.739502 -6.21012,-7.672812 -17.92876,-6.344761 -22.02175,2.495684 -2.55367,5.515673 -0.38408,12.751652 4.82597,16.095475 2.55224,1.63803 3.14552,1.76641 7.34444,1.58928 3.7491,-0.15815 5.00642,-0.48289 7.01423,-1.81162 z"
   id="path881" /><path
   style="fill:#00bed0;stroke:none;stroke-width:0.603175;fill-opacity:1"
   d="m 182.18959,225.61914 -2.01532,-2.07929 0.41757,-33.35722 0.41758,-33.35723 1.51305,-1.35714 c 1.96964,-1.76667 4.72002,-1.7568 6.50015,0.0233 1.35606,1.35607 1.38756,1.6948 1.78099,19.1508 0.22029,9.77367 0.40102,23.09038 0.40163,29.59269 l 0.001,11.82238 5.52124,0.39191 c 3.03668,0.21555 8.98398,0.3919 13.21622,0.3919 h 7.69499 l 1.56155,1.85581 c 0.87961,1.04535 1.56156,2.60562 1.56156,3.57277 0,0.96714 -0.68195,2.52741 -1.56156,3.57276 l -1.56155,1.85581 H 200.92185 184.2049 Z"
   id="path2400" /><path
   style="fill:#00bed0;stroke:none;stroke-width:0.603175;fill-opacity:1"
   d="m 146.56855,225.58474 c -3.02927,-2.69042 -3.09255,-2.71352 -6.50427,-2.37456 -1.89487,0.18825 -4.00832,0.45406 -4.69654,0.59066 -2.482,0.49268 -11.872,-0.98109 -15.40959,-2.41854 -12.9948,-5.28026 -22.243862,-18.57991 -22.243862,-31.98547 0,-13.47145 9.055872,-26.44372 22.433462,-32.13525 3.5354,-1.50414 4.42354,-1.61953 12.55067,-1.63061 7.58975,-0.0103 9.21565,0.16537 12.29825,1.32909 13.54904,5.11491 23.31071,18.57954 23.28013,32.11112 -0.0197,8.71863 -3.47822,17.03355 -10.02701,24.10686 -2.1104,2.27943 -3.82846,4.51114 -3.81791,4.95938 0.0105,0.44823 0.4177,1.34184 0.90477,1.98581 1.41489,1.87065 1.10375,4.77981 -0.70461,6.58818 -2.38247,2.38246 -4.43536,2.09563 -8.06349,-1.12667 z m -12.06061,-12.95111 c 0,-0.32373 -0.54184,-1.4773 -1.2041,-2.56349 -2.51698,-4.12823 -0.49464,-8.30823 4.01962,-8.30823 2.01656,0 2.67292,0.43682 5.93777,3.95164 l 3.67059,3.95164 3.4636,-3.63122 c 1.90498,-1.99717 4.1989,-5.20041 5.09759,-7.11831 1.43583,-3.06422 1.63398,-4.22006 1.63398,-9.53151 0,-5.59164 -0.14582,-6.34063 -1.94652,-9.99837 -4.80651,-9.76341 -14.8092,-14.90774 -25.7079,-13.22144 -8.59009,1.32911 -15.05296,5.90686 -18.64449,13.20621 -1.82095,3.70085 -1.95281,4.38788 -1.92223,10.01572 0.0282,5.1927 0.25409,6.52388 1.60638,9.46725 2.9131,6.34056 8.25153,10.9091 15.42924,13.2041 3.73659,1.19473 8.56647,1.51949 8.56647,0.57601 z"
   id="path2476" /><path
   style="fill:#00bed0;stroke:none;stroke-width:0.603175;fill-opacity:1"
   d="m 61.090726,225.56491 c -4.754178,-1.28057 -11.291844,-4.80049 -14.33905,-7.72022 -2.269158,-2.17424 -2.719929,-2.9777 -2.719929,-4.84807 0,-2.75702 2.172349,-5.20296 4.620982,-5.20296 0.964183,0 3.117182,1.02219 5.13662,2.43874 6.18354,4.33751 8.430863,5.0715 15.575732,5.0871 5.448075,0.0119 6.736107,-0.18449 9.214867,-1.40508 3.522889,-1.73473 4.926573,-4.0974 4.467539,-7.51975 -0.53321,-3.97538 -2.54988,-5.3774 -13.522743,-9.40121 -14.782205,-5.42072 -18.391711,-7.76659 -21.723657,-14.1185 -1.409038,-2.68614 -1.642502,-3.85446 -1.649767,-8.25591 -0.0075,-4.56498 0.187787,-5.4813 1.781849,-8.35928 2.962184,-5.34803 8.141731,-8.96818 14.907216,-10.41912 4.830025,-1.03585 16.315289,-0.36865 20.887612,1.21341 7.410269,2.56401 10.413799,5.72561 8.920069,9.38951 -0.413062,1.01318 -1.461929,2.24176 -2.330815,2.73017 -1.72426,0.96924 -2.882876,0.76156 -9.627577,-1.7257 -2.643332,-0.97478 -4.835941,-1.27264 -9.349206,-1.27007 -7.251683,0.004 -10.083803,0.74632 -12.653433,3.31595 -1.684715,1.68472 -1.988621,2.42147 -1.988621,4.82096 0,5.70018 2.26289,7.52676 14.868968,12.00209 10.522345,3.73557 13.28672,5.07752 16.570148,8.0439 3.832362,3.46231 5.547961,7.41433 5.569423,12.82961 0.03749,9.45871 -4.79814,15.04866 -15.856111,18.32956 -4.025848,1.19447 -12.408868,1.21691 -16.760116,0.0449 z"
   id="path2552" /></svg>
